<svg xmlns="http://www.w3.org/2000/svg" viewBox="0 0 706.92 198.14"><defs><style>.cls-1,.cls-2{fill:#a9a9a9;fill-rule:evenodd;}.cls-1,.cls-10,.cls-11,.cls-12,.cls-13,.cls-14,.cls-15,.cls-16,.cls-17,.cls-18,.cls-19,.cls-20,.cls-21,.cls-22,.cls-23,.cls-24,.cls-25,.cls-3,.cls-4,.cls-5,.cls-6,.cls-7,.cls-8,.cls-9{stroke:#a9a9a9;}.cls-1,.cls-15,.cls-21,.cls-25,.cls-3,.cls-8,.cls-9{stroke-miterlimit:2.61;}.cls-1{stroke-width:0.22px;}.cls-10,.cls-11,.cls-12,.cls-13,.cls-14,.cls-15,.cls-16,.cls-17,.cls-18,.cls-19,.cls-20,.cls-21,.cls-22,.cls-23,.cls-24,.cls-25,.cls-3,.cls-4,.cls-5,.cls-6,.cls-7,.cls-8,.cls-9{fill:none;}.cls-3{stroke-linecap:square;}.cls-14,.cls-3,.cls-4,.cls-9{stroke-width:0.7px;}.cls-10,.cls-11,.cls-12,.cls-17,.cls-18,.cls-20,.cls-4{stroke-linecap:round;}.cls-10,.cls-11,.cls-12,.cls-13,.cls-14,.cls-16,.cls-17,.cls-18,.cls-19,.cls-20,.cls-22,.cls-23,.cls-24,.cls-4,.cls-5,.cls-6,.cls-7{stroke-linejoin:round;}.cls-10,.cls-5{stroke-width:0.72px;}.cls-6{stroke-width:0.71px;}.cls-7{stroke-width:0.73px;}.cls-8{stroke-width:0.69px;}.cls-11,.cls-19{stroke-width:0.72px;}.cls-12{stroke-width:0.74px;}.cls-13{stroke-width:4.97px;}.cls-15{stroke-width:0.7px;}.cls-16,.cls-21{stroke-width:0.7px;}.cls-17{stroke-width:0.74px;}.cls-18{stroke-width:0.71px;}.cls-20{stroke-width:0.74px;}.cls-22{stroke-width:0.7px;}.cls-23{stroke-width:0.7px;}.cls-24{stroke-width:0.7px;}.cls-25{stroke-width:0.69px;}</style></defs><title>Asset 1</title><g id="Layer_2" data-name="Layer 2"><g id="Layer_1-2" data-name="Layer 1"><polygon class="cls-1" points="0.14 149.95 0.14 151.34 706.82 151.34 706.82 149.95 0.14 149.95 0.14 149.95"/><polygon class="cls-1" points="0.11 149.98 706.75 149.98 706.75 151.27 0.11 151.27 0.11 149.98 0.11 149.98"/><path class="cls-2" d="M25.81,83.53V92H22.47V83.53h0a3.23,3.23,0,0,1,3.34,0Z"/><path class="cls-2" d="M16,103.1v10.36h3.69V103.1h0a3.4,3.4,0,0,0-3.68,0Z"/><path class="cls-2" d="M25.63,103.1v10.36H22V103.1h0a3.4,3.4,0,0,1,3.68,0Z"/><path class="cls-2" d="M16,124.63v9.47h3.69v-9.47h0a3.72,3.72,0,0,0-3.68,0Z"/><path class="cls-2" d="M22,124.63v9.47h3.68v-9.47h0a3.72,3.72,0,0,0-3.68,0Z"/><path class="cls-2" d="M40.54,124.63v9.47h3.69v-9.47h0a3.74,3.74,0,0,0-3.69,0Z"/><path class="cls-2" d="M34.64,124.63v9.47h3.68v-9.47h0a3.72,3.72,0,0,0-3.68,0Z"/><path class="cls-2" d="M53.23,124.63v9.47h3.68v-9.47h0a3.72,3.72,0,0,0-3.68,0Z"/><path class="cls-2" d="M59.14,124.63v9.47h3.68v-9.47h0a3.72,3.72,0,0,0-3.68,0Z"/><path class="cls-2" d="M44.23,103.1v10.36H40.54V103.1h0a3.42,3.42,0,0,1,3.69,0Z"/><path class="cls-2" d="M34.64,103.1v10.36h3.68V103.1h0a3.4,3.4,0,0,0-3.68,0Z"/><path class="cls-2" d="M34.81,83.53V92h3.34V83.53h0a3.17,3.17,0,0,0-3.33,0Z"/><path class="cls-2" d="M44.4,83.53V92H41.06V83.53h0a3.23,3.23,0,0,1,3.34,0Z"/><path class="cls-2" d="M62.82,103.1v10.36H59.14V103.1h0a3.4,3.4,0,0,1,3.68,0Z"/><path class="cls-2" d="M53.23,103.1v10.36h3.68V103.1h0a3.4,3.4,0,0,0-3.68,0Z"/><path class="cls-2" d="M53.4,83.53V92h3.34V83.53h0a3.19,3.19,0,0,0-3.34,0Z"/><path class="cls-2" d="M63,83.53V92H59.66V83.53h0a3.21,3.21,0,0,1,3.33,0Z"/><polygon class="cls-2" points="19.76 146.89 16.35 146.89 16.35 141.06 19.76 141.06 19.76 146.89 19.76 146.89"/><polygon class="cls-2" points="38.35 146.89 34.95 146.89 34.95 141.06 38.35 141.06 38.35 146.89 38.35 146.89"/><polygon class="cls-2" points="56.95 146.89 53.54 146.89 53.54 141.06 56.95 141.06 56.95 146.89 56.95 146.89"/><polygon class="cls-2" points="62.86 146.89 59.1 146.89 59.1 141.06 62.86 141.06 62.86 146.89 62.86 146.89"/><polygon class="cls-2" points="44.26 146.89 40.51 146.89 40.51 141.06 44.26 141.06 44.26 146.89 44.26 146.89"/><polygon class="cls-2" points="25.67 146.89 21.91 146.89 21.91 141.06 25.67 141.06 25.67 146.89 25.67 146.89"/><polygon class="cls-2" points="16.25 62.8 18.27 62.8 18.27 67.25 16.25 67.25 16.25 62.8 16.25 62.8"/><polygon class="cls-2" points="19.8 62.8 21.82 62.8 21.82 67.25 19.8 67.25 19.8 62.8 19.8 62.8"/><polygon class="cls-2" points="23.36 62.8 25.37 62.8 25.37 67.25 23.36 67.25 23.36 62.8 23.36 62.8"/><polygon class="cls-2" points="34.9 62.8 36.91 62.8 36.91 67.25 34.9 67.25 34.9 62.8 34.9 62.8"/><polygon class="cls-2" points="38.45 62.8 40.46 62.8 40.46 67.25 38.45 67.25 38.45 62.8 38.45 62.8"/><polygon class="cls-2" points="41.95 62.8 43.97 62.8 43.97 67.25 41.95 67.25 41.95 62.8 41.95 62.8"/><polygon class="cls-2" points="53.49 62.8 55.51 62.8 55.51 67.25 53.49 67.25 53.49 62.8 53.49 62.8"/><polygon class="cls-2" points="57.04 62.8 59.06 62.8 59.06 67.25 57.04 67.25 57.04 62.8 57.04 62.8"/><polygon class="cls-2" points="60.6 62.8 62.61 62.8 62.61 67.25 60.6 67.25 60.6 62.8 60.6 62.8"/><path class="cls-2" d="M71.18,83.56v8.36h8.1V83.56h0a7.59,7.59,0,0,0-8.1,0Z"/><path class="cls-2" d="M78.5,103.15a6,6,0,0,0-6.54,0h0V113.5H78.5V103.15Z"/><path class="cls-2" d="M78.5,124.74a6.13,6.13,0,0,0-6.54,0h0v9.36H78.5v-9.36Z"/><path class="cls-2" d="M94.31,103.15a6,6,0,0,0-6.53,0h0V113.5h6.53V103.15Z"/><path class="cls-2" d="M87,83.56v8.36h8.1V83.56h0a7.59,7.59,0,0,0-8.1,0Z"/><path class="cls-2" d="M94.31,124.74a6.11,6.11,0,0,0-6.53,0h0v9.36h6.53v-9.36Z"/><path class="cls-2" d="M110.12,103.15a6,6,0,0,0-6.53,0h0V113.5h6.53V103.15Z"/><path class="cls-2" d="M102.81,83.56v8.36h8.1V83.56h0a7.58,7.58,0,0,0-8.09,0Z"/><path class="cls-2" d="M110.12,124.74a6.11,6.11,0,0,0-6.53,0h0v9.36h6.53v-9.36Z"/><path class="cls-2" d="M125.94,103.15a6,6,0,0,0-6.54,0h0V113.5h6.54V103.15Z"/><path class="cls-2" d="M118.62,83.56v8.36h8.1V83.56h0a7.59,7.59,0,0,0-8.1,0Z"/><path class="cls-2" d="M125.94,124.74a6.13,6.13,0,0,0-6.54,0h0v9.36h6.54v-9.36Z"/><path class="cls-2" d="M141.75,103.15a6,6,0,0,0-6.53,0h0V113.5h6.53V103.15Z"/><path class="cls-2" d="M134.43,83.56v8.36h8.1V83.56h0a7.59,7.59,0,0,0-8.1,0Z"/><path class="cls-2" d="M141.75,124.74a6.11,6.11,0,0,0-6.53,0h0v9.36h6.53v-9.36Z"/><path class="cls-2" d="M157.56,103.15a6,6,0,0,0-6.53,0h0V113.5h6.53V103.15Z"/><path class="cls-2" d="M150.25,83.56v8.36h8.1V83.56h0a7.59,7.59,0,0,0-8.1,0Z"/><path class="cls-2" d="M157.56,124.74a6.11,6.11,0,0,0-6.53,0h0v9.36h6.53v-9.36Z"/><path class="cls-2" d="M173.38,103.15a6,6,0,0,0-6.54,0h0V113.5h6.54V103.15Z"/><path class="cls-2" d="M166.06,83.56v8.36h8.1V83.56h0a7.59,7.59,0,0,0-8.1,0Z"/><path class="cls-2" d="M173.38,124.74a6.13,6.13,0,0,0-6.54,0h0v9.36h6.54v-9.36Z"/><path class="cls-2" d="M189.19,103.15a6,6,0,0,0-6.53,0h0V113.5h6.53V103.15Z"/><path class="cls-2" d="M181.88,83.56v8.36H190V83.56h0a7.58,7.58,0,0,0-8.09,0Z"/><path class="cls-2" d="M189.19,124.74a6.11,6.11,0,0,0-6.53,0h0v9.36h6.53v-9.36Z"/><path class="cls-2" d="M205,103.15a6,6,0,0,0-6.53,0h0V113.5H205V103.15Z"/><path class="cls-2" d="M197.69,83.56v8.36h8.1V83.56h0a7.59,7.59,0,0,0-8.1,0Z"/><path class="cls-2" d="M205,124.74a6.11,6.11,0,0,0-6.53,0h0v9.36H205v-9.36Z"/><path class="cls-2" d="M220.82,103.15a6,6,0,0,0-6.54,0h0V113.5h6.54V103.15Z"/><path class="cls-2" d="M213.5,83.56v8.36h8.1V83.56h0a7.59,7.59,0,0,0-8.1,0Z"/><path class="cls-2" d="M220.82,124.74a6.13,6.13,0,0,0-6.54,0h0v9.36h6.54v-9.36Z"/><path class="cls-2" d="M236.63,103.15a6,6,0,0,0-6.53,0h0V113.5h6.53V103.15Z"/><path class="cls-2" d="M229.32,83.56v8.36h8.09V83.56h0a7.58,7.58,0,0,0-8.09,0Z"/><path class="cls-2" d="M236.63,124.74a6.11,6.11,0,0,0-6.53,0h0v9.36h6.53v-9.36Z"/><path class="cls-2" d="M252.44,103.15a6,6,0,0,0-6.53,0h0V113.5h6.54V103.15Z"/><path class="cls-2" d="M245.13,83.56v8.36h8.1V83.56h0a7.59,7.59,0,0,0-8.1,0Z"/><path class="cls-2" d="M252.45,124.74a6.13,6.13,0,0,0-6.54,0h0v9.36h6.54v-9.36Z"/><path class="cls-2" d="M69.68,65.43V60.54h.13V59.17h1v-1.3l-1.54-.44V53.52l-.34-.2a6.61,6.61,0,0,0-1.5-3h189v.78h.39v6.71h-.54v1.56h-.35v2.42l-3.68.89v1.62h2.49v1.2H252a.8.8,0,0,1-.77-.57h0a2.38,2.38,0,0,0-4,0h0a.8.8,0,0,1-.77.57H236.14a.8.8,0,0,1-.77-.57h0a2.37,2.37,0,0,0-4,0h0a.8.8,0,0,1-.77.57H220.33a.8.8,0,0,1-.77-.57h0a2.38,2.38,0,0,0-4,0h0a.8.8,0,0,1-.77.57H204.52a.8.8,0,0,1-.77-.57h0a2.38,2.38,0,0,0-4,0h0a.8.8,0,0,1-.77.57H188.7a.8.8,0,0,1-.77-.57h0a2.37,2.37,0,0,0-4,0h0a.8.8,0,0,1-.77.57H172.89a.8.8,0,0,1-.77-.57h0a2.38,2.38,0,0,0-4,0h0a.8.8,0,0,1-.77.57H157.08a.8.8,0,0,1-.77-.57h0a2.37,2.37,0,0,0-4,0h0a.8.8,0,0,1-.77.57H141.26a.8.8,0,0,1-.77-.57h0a2.38,2.38,0,0,0-4,0h0a.8.8,0,0,1-.77.57H125.45a.8.8,0,0,1-.77-.57h0a2.38,2.38,0,0,0-4,0h0a.8.8,0,0,1-.77.57H109.64a.82.82,0,0,1-.78-.57h0a2.37,2.37,0,0,0-4,0h0a.81.81,0,0,1-.77.57H93.82a.8.8,0,0,1-.77-.57h0a2.38,2.38,0,0,0-4,0h0a.8.8,0,0,1-.77.57H78a.8.8,0,0,1-.77-.57h0a2.38,2.38,0,0,0-4,0h0a.8.8,0,0,1-.77.57h0l-2.77,0Z"/><path class="cls-2" d="M637.29,65.43V60.54h-.13V59.17h-1v-1.3l1.54-.44V53.52l.34-.2a6.39,6.39,0,0,1,1.5-3h-189v.78h-.39v6.71h.54v1.56h.35v2.42l3.68.89v1.62h-2.49v1.2H455a.8.8,0,0,0,.77-.57h0a2.38,2.38,0,0,1,4,0h0a.8.8,0,0,0,.77.57h10.25a.8.8,0,0,0,.77-.57h0a2.38,2.38,0,0,1,4,0h0a.8.8,0,0,0,.77.57h10.25a.82.82,0,0,0,.78-.57h0a2.37,2.37,0,0,1,4,0h0a.8.8,0,0,0,.77.57h10.26a.8.8,0,0,0,.77-.57h0a2.38,2.38,0,0,1,4,0h0a.8.8,0,0,0,.77.57h10.25a.8.8,0,0,0,.77-.57h0a2.38,2.38,0,0,1,4,0h0a.8.8,0,0,0,.77.57h10.25a.81.81,0,0,0,.78-.57h0a2.37,2.37,0,0,1,4,0h0a.81.81,0,0,0,.77.57h10.26a.8.8,0,0,0,.77-.57h0a2.38,2.38,0,0,1,4,0h0a.8.8,0,0,0,.77.57H565.7a.8.8,0,0,0,.77-.57h0a2.38,2.38,0,0,1,4,0h0a.8.8,0,0,0,.77.57h10.25a.81.81,0,0,0,.78-.57h0a2.37,2.37,0,0,1,4,0h0a.82.82,0,0,0,.78.57h10.25a.8.8,0,0,0,.77-.57h0a2.38,2.38,0,0,1,4,0h0a.8.8,0,0,0,.77.57h10.25a.8.8,0,0,0,.77-.57h0a2.38,2.38,0,0,1,4,0h0a.8.8,0,0,0,.77.57H629a.8.8,0,0,0,.77-.57h0a2.37,2.37,0,0,1,4,0h0a.8.8,0,0,0,.77.57h0l2.77,0Z"/><polygon class="cls-2" points="74.53 66.92 74.53 69.13 75.92 69.13 75.92 66.92 74.53 66.92 74.53 66.92"/><polygon class="cls-2" points="90.35 66.92 90.35 69.13 91.74 69.13 91.74 66.92 90.35 66.92 90.35 66.92"/><polygon class="cls-2" points="106.16 66.92 106.16 69.13 107.55 69.13 107.55 66.92 106.16 66.92 106.16 66.92"/><polygon class="cls-2" points="121.97 66.92 121.97 69.13 123.36 69.13 123.36 66.92 121.97 66.92 121.97 66.92"/><polygon class="cls-2" points="137.79 66.92 137.79 69.13 139.18 69.13 139.18 66.92 137.79 66.92 137.79 66.92"/><polygon class="cls-2" points="153.6 66.92 153.6 69.13 154.99 69.13 154.99 66.92 153.6 66.92 153.6 66.92"/><polygon class="cls-2" points="169.41 66.92 169.41 69.13 170.81 69.13 170.81 66.92 169.41 66.92 169.41 66.92"/><polygon class="cls-2" points="185.23 66.92 185.23 69.13 186.62 69.13 186.62 66.92 185.23 66.92 185.23 66.92"/><polygon class="cls-2" points="201.04 66.92 201.04 69.13 202.43 69.13 202.43 66.92 201.04 66.92 201.04 66.92"/><polygon class="cls-2" points="216.86 66.92 216.86 69.13 218.25 69.13 218.25 66.92 216.86 66.92 216.86 66.92"/><polygon class="cls-2" points="232.67 66.92 232.67 69.13 234.06 69.13 234.06 66.92 232.67 66.92 232.67 66.92"/><polygon class="cls-2" points="248.48 66.92 248.48 69.13 249.87 69.13 249.87 66.92 248.48 66.92 248.48 66.92"/><path class="cls-2" d="M272.51,6.24v.5l.72,2.85h-1.81l.71-2.81V6.24h0a.53.53,0,0,1,.05-.66h0L272.32,0l.14,5.58h0a.53.53,0,0,1,.05.66Zm-1.44,5.25h0v5h2.51v-5Zm-.8,6.69-9.33,28.64.88,1.71h21l.9-1.7-9.33-28.65Zm0,18.92,1.1,5.44h1.87l1.1-5.44Zm1.93-2.74-1.84,2.51h3.89l-1.84-2.51Z"/><path class="cls-2" d="M434.46,6.24v.5l-.71,2.85h1.8l-.71-2.81V6.24h0a.5.5,0,0,0-.05-.66h0L434.64,0l-.13,5.58h0a.5.5,0,0,0-.05.66Zm1.43,5.25h0v5h-2.5v-5Zm.8,6.69L446,46.82l-.88,1.71h-21l-.89-1.7,9.33-28.65Zm0,18.92-1.09,5.44H433.7l-1.09-5.44Zm-1.93-2.74,1.85,2.51h-3.9l1.85-2.51Z"/><path class="cls-2" d="M404.76,55.1v-.64h0a.34.34,0,0,1-.2-.19h0a3.45,3.45,0,0,0-3.05-2.1h0a.41.41,0,0,1-.39-.41h0a2,2,0,0,0-1.05-.29h0a1.9,1.9,0,0,0-1,.29h0a.42.42,0,0,1-.4.41h0a3.45,3.45,0,0,0-3.05,2.1h0a.34.34,0,0,1-.2.19h0v.64H381.47v-.64h0a.31.31,0,0,1-.2-.19h0a3.45,3.45,0,0,0-3-2.1h0a.41.41,0,0,1-.4-.41h0a2,2,0,0,0-1-.29h0a2,2,0,0,0-1,.29h0a.41.41,0,0,1-.4.41h0a3.46,3.46,0,0,0-3.06,2.1h0a.31.31,0,0,1-.2.19h0v.64H358.17v-.64h0a.34.34,0,0,1-.2-.19h0a3.45,3.45,0,0,0-3.05-2.1h0a.42.42,0,0,1-.4-.41h0a1.9,1.9,0,0,0-1-.29h0a1.9,1.9,0,0,0-1,.29h0a.41.41,0,0,1-.39.41h0a3.45,3.45,0,0,0-3.05,2.1h0a.34.34,0,0,1-.2.19h0v.64H334.87v-.64h0a.34.34,0,0,1-.2-.19h0a3.45,3.45,0,0,0-3.05-2.1h0a.42.42,0,0,1-.4-.41h0a1.9,1.9,0,0,0-1-.29h0a1.9,1.9,0,0,0-1,.29h0a.42.42,0,0,1-.4.41h0a3.45,3.45,0,0,0-3.05,2.1h0a.34.34,0,0,1-.2.19h0v.64H311.58v-.64h0a.31.31,0,0,1-.2-.19h0a3.44,3.44,0,0,0-3.05-2.1h0a.41.41,0,0,1-.39-.41h0a2,2,0,0,0-1.05-.29h0a1.92,1.92,0,0,0-1,.29h0a.42.42,0,0,1-.4.41h0a3.45,3.45,0,0,0-3.05,2.1h0a.34.34,0,0,1-.2.19h0v.64H287.9V51.05h.39v-.78h3.46l22.44-25.46h1.07v-.9l1-2.47h-.2V15.91h0a3.56,3.56,0,0,1,.35-1.57h0a1.83,1.83,0,0,1,1.14-1h0l0-1.58.23-.79.23.79.05,1.58h0a1.83,1.83,0,0,1,1.14,1h0a3.71,3.71,0,0,1,.35,1.57h0v4.73h67.72V15.91h0a3.43,3.43,0,0,1,.35-1.57h0a1.83,1.83,0,0,1,1.14-1h0l0-1.58.23-.79.23.79.05,1.58h0a1.82,1.82,0,0,1,1.13,1h0a3.57,3.57,0,0,1,.36,1.57h0v5.53h-.2l1,2.47v.9h1.07l22.44,25.46h3.46v.78h.39V55.1ZM388.4,15.91V20.4h1.4V15.91Zm-69.84,0h-1.41V20.4h1.41V15.91Z"/><polygon class="cls-2" points="263.72 51.88 265.84 51.88 265.84 57.76 263.72 57.76 263.72 51.88 263.72 51.88"/><polygon class="cls-2" points="267.49 51.88 269.61 51.88 269.61 57.76 267.49 57.76 267.49 51.88 267.49 51.88"/><polygon class="cls-2" points="271.26 51.88 273.38 51.88 273.38 57.76 271.26 57.76 271.26 51.88 271.26 51.88"/><polygon class="cls-2" points="275.04 51.88 277.16 51.88 277.16 57.76 275.04 57.76 275.04 51.88 275.04 51.88"/><polygon class="cls-2" points="278.81 51.88 280.93 51.88 280.93 57.76 278.81 57.76 278.81 51.88 278.81 51.88"/><polygon class="cls-2" points="443.23 51.88 441.11 51.88 441.11 57.76 443.23 57.76 443.23 51.88 443.23 51.88"/><polygon class="cls-2" points="439.46 51.88 437.34 51.88 437.34 57.76 439.46 57.76 439.46 51.88 439.46 51.88"/><polygon class="cls-2" points="431.92 51.88 429.8 51.88 429.8 57.76 431.92 57.76 431.92 51.88 431.92 51.88"/><polygon class="cls-2" points="435.69 51.88 433.57 51.88 433.57 57.76 435.69 57.76 435.69 51.88 435.69 51.88"/><polygon class="cls-2" points="428.15 51.88 426.03 51.88 426.03 57.76 428.15 57.76 428.15 51.88 428.15 51.88"/><polygon class="cls-2" points="297.29 79.52 293.29 79.52 293.1 111.1 297.51 111.1 297.29 79.52 297.29 79.52 297.29 79.52"/><polygon class="cls-2" points="297.55 78.27 292.92 78.27 292.35 74.1 292.35 73.33 298.12 73.33 298.12 74.1 297.55 78.27 297.55 78.27"/><polygon class="cls-2" points="292.18 113.67 292.18 117.54 298.29 117.54 298.29 113.67 292.18 113.67 292.18 113.67 292.18 113.67"/><path class="cls-2" d="M312.49,86.65a5.82,5.82,0,0,0-1.57-1.16h0a9.24,9.24,0,0,0-8.08,0h0a5.82,5.82,0,0,0-1.57,1.16h0a3.69,3.69,0,0,0-1.08,2.5h0v24.57h13.38V89.15h0a3.74,3.74,0,0,0-1.08-2.5Z"/><polygon class="cls-2" points="315.47 113.67 315.47 117.54 321.59 117.54 321.59 113.67 315.47 113.67 315.47 113.67 315.47 113.67"/><polygon class="cls-2" points="320.58 79.52 316.59 79.52 316.39 111.1 320.81 111.1 320.58 79.52 320.58 79.52 320.58 79.52"/><polygon class="cls-2" points="320.85 78.27 316.22 78.27 315.65 74.1 315.65 73.33 321.42 73.33 321.42 74.1 320.85 78.27 320.85 78.27"/><path class="cls-2" d="M335.79,86.65a6.14,6.14,0,0,0-1.57-1.16h0a9.24,9.24,0,0,0-8.08,0h0a6,6,0,0,0-1.58,1.16h0a3.72,3.72,0,0,0-1.07,2.5h0v24.57h13.37V89.15h0a3.68,3.68,0,0,0-1.07-2.5Z"/><path class="cls-2" d="M359.09,86.65a6.14,6.14,0,0,0-1.57-1.16h0a9.26,9.26,0,0,0-8.09,0h0a6.14,6.14,0,0,0-1.57,1.16h0a3.72,3.72,0,0,0-1.07,2.5h0v24.57h13.37V89.15h0a3.72,3.72,0,0,0-1.07-2.5Z"/><polygon class="cls-2" points="343.88 79.52 339.88 79.52 339.69 111.1 344.11 111.1 343.88 79.52 343.88 79.52 343.88 79.52"/><polygon class="cls-2" points="344.14 78.27 339.52 78.27 338.95 74.1 338.95 73.33 344.71 73.33 344.71 74.1 344.14 78.27 344.14 78.27"/><polygon class="cls-2" points="338.77 113.67 338.77 117.54 344.89 117.54 344.89 113.67 338.77 113.67 338.77 113.67 338.77 113.67"/><path class="cls-2" d="M382.38,86.65a5.82,5.82,0,0,0-1.57-1.16h0a9.24,9.24,0,0,0-8.08,0h0a5.82,5.82,0,0,0-1.57,1.16h0a3.68,3.68,0,0,0-1.07,2.5h0v24.57h13.38V89.15h0a3.69,3.69,0,0,0-1.08-2.5Z"/><polygon class="cls-2" points="367.44 78.27 362.81 78.27 362.24 74.1 362.24 73.33 368.01 73.33 368.01 74.1 367.44 78.27 367.44 78.27"/><polygon class="cls-2" points="367.18 79.52 363.18 79.52 362.99 111.1 367.4 111.1 367.18 79.52 367.18 79.52 367.18 79.52"/><polygon class="cls-2" points="362.07 113.67 362.07 117.54 368.19 117.54 368.19 113.67 362.07 113.67 362.07 113.67 362.07 113.67"/><path class="cls-2" d="M405.68,86.65a5.82,5.82,0,0,0-1.57-1.16h0a9.24,9.24,0,0,0-8.08,0h0a5.82,5.82,0,0,0-1.57,1.16h0a3.69,3.69,0,0,0-1.08,2.5h0v24.57h13.38V89.15h0a3.74,3.74,0,0,0-1.08-2.5Z"/><polygon class="cls-2" points="390.74 78.27 386.11 78.27 385.54 74.1 385.54 73.33 391.31 73.33 391.31 74.1 390.74 78.27 390.74 78.27"/><polygon class="cls-2" points="390.48 79.52 386.48 79.52 386.29 111.1 390.7 111.1 390.48 79.52 390.48 79.52 390.48 79.52"/><polygon class="cls-2" points="385.37 113.67 385.37 117.54 391.48 117.54 391.48 113.67 385.37 113.67 385.37 113.67 385.37 113.67"/><polygon class="cls-2" points="414.04 78.27 409.41 78.27 408.84 74.1 408.84 73.33 414.61 73.33 414.61 74.1 414.04 78.27 414.04 78.27"/><polygon class="cls-2" points="413.77 79.52 409.77 79.52 409.58 111.1 414 111.1 413.77 79.52 413.77 79.52 413.77 79.52"/><polygon class="cls-2" points="408.66 113.67 408.66 117.54 414.78 117.54 414.78 113.67 408.66 113.67 408.66 113.67 408.66 113.67"/><polygon class="cls-2" points="301.81 122.46 301.81 126.81 304.07 126.81 304.07 122.46 301.81 122.46 301.81 122.46"/><polygon class="cls-2" points="305.53 122.46 305.53 126.81 307.79 126.81 307.79 122.46 305.53 122.46 305.53 122.46"/><polygon class="cls-2" points="309.25 122.46 309.25 126.81 311.51 126.81 311.51 122.46 309.25 122.46 309.25 122.46"/><polygon class="cls-2" points="302.98 133.34 302.98 135.25 305.86 135.25 305.86 133.34 302.98 133.34 302.98 133.34"/><polygon class="cls-2" points="302.98 135.98 302.98 140.46 305.86 140.46 305.86 135.98 302.98 135.98 302.98 135.98"/><polygon class="cls-2" points="307.46 135.98 307.46 140.46 310.35 140.46 310.35 135.98 307.46 135.98 307.46 135.98"/><polygon class="cls-2" points="307.46 133.34 307.46 135.25 310.35 135.25 310.35 133.34 307.46 133.34 307.46 133.34"/><polygon class="cls-2" points="403.98 135.98 403.98 140.46 401.09 140.46 401.09 135.98 403.98 135.98 403.98 135.98"/><polygon class="cls-2" points="403.98 133.34 403.98 135.25 401.09 135.25 401.09 133.34 403.98 133.34 403.98 133.34"/><polygon class="cls-2" points="405.14 122.46 405.14 126.81 402.88 126.81 402.88 122.46 405.14 122.46 405.14 122.46"/><polygon class="cls-2" points="399.49 133.34 399.49 135.25 396.61 135.25 396.61 133.34 399.49 133.34 399.49 133.34"/><polygon class="cls-2" points="399.49 135.98 399.49 140.46 396.61 140.46 396.61 135.98 399.49 135.98 399.49 135.98"/><polygon class="cls-2" points="397.7 122.46 397.7 126.81 395.44 126.81 395.44 122.46 397.7 122.46 397.7 122.46"/><polygon class="cls-2" points="401.42 122.46 401.42 126.81 399.16 126.81 399.16 122.46 401.42 122.46 401.42 122.46"/><path class="cls-2" d="M387.47,130.75h3v.17h0a.11.11,0,0,0-.1.11h0v.19h0a.07.07,0,0,1-.07.07h-.1v.05h0a0,0,0,0,1,0,0H386.9A10.14,10.14,0,0,0,376.78,122h0a10.14,10.14,0,0,0-10.13,9.42h-3A10.15,10.15,0,0,0,353.48,122h0a10.15,10.15,0,0,0-10.13,9.42h-3A10.15,10.15,0,0,0,330.18,122h0a10.15,10.15,0,0,0-10.13,9.42h-3.23a0,0,0,0,1,0,0h0v-.05h-.1a.07.07,0,0,1-.07-.07h0V131h0a.11.11,0,0,0-.11-.11h0v-.17h3a10.79,10.79,0,0,1,10.69-9.42h0a10.79,10.79,0,0,1,10.69,9.42h1.91a10.8,10.8,0,0,1,10.7-9.42h0a10.8,10.8,0,0,1,10.69,9.42h1.91a10.8,10.8,0,0,1,10.7-9.42h0a10.8,10.8,0,0,1,10.69,9.42Z"/><polygon class="cls-2" points="323.68 145.5 336.69 145.5 336.69 141.09 336.75 141.02 336.75 134.39 333.7 134.39 333.1 133.78 331.6 133.78 331.28 133.47 329.08 133.47 328.76 133.78 327.27 133.78 326.66 134.39 323.61 134.39 323.61 140.99 323.68 141.09 323.68 145.5 323.68 145.5"/><path class="cls-2" d="M336.75,132.11a6.57,6.57,0,0,0-13.14,0h0v1.75h2.85l.61-.61h1.5l.31-.31h2.6l.31.31h1.48l.62.62h2.87v-1.76Z"/><polygon class="cls-2" points="346.97 145.5 359.98 145.5 359.98 141.09 360.05 141.02 360.05 134.39 357 134.39 356.39 133.78 354.89 133.78 354.58 133.47 352.38 133.47 352.06 133.78 350.56 133.78 349.95 134.39 346.9 134.39 346.9 140.99 346.98 141.09 346.97 145.5 346.97 145.5"/><path class="cls-2" d="M360.05,132.11a6.58,6.58,0,0,0-13.15,0h0v1.75h2.86l.61-.61h1.5l.31-.31h2.59l.32.31h1.48l.62.62h2.86v-1.76Z"/><polygon class="cls-2" points="370.27 145.5 383.28 145.5 383.28 141.09 383.35 141.02 383.35 134.39 380.3 134.39 379.69 133.78 378.19 133.78 377.88 133.47 375.67 133.47 375.36 133.78 373.86 133.78 373.25 134.39 370.2 134.39 370.2 140.99 370.28 141.09 370.27 145.5 370.27 145.5"/><path class="cls-2" d="M383.35,132.11a6.58,6.58,0,0,0-13.15,0h0v1.75h2.86l.61-.61h1.5l.31-.31h2.59l.31.31h1.49l.61.62h2.87v-1.76Z"/><path class="cls-2" d="M267,83.9a2.89,2.89,0,0,0-4.38,0h0v8.91H267V83.9Z"/><path class="cls-2" d="M274.51,83.9a2.88,2.88,0,0,0-4.37,0h0v8.91h4.37V83.9Z"/><path class="cls-2" d="M281.87,83.9a2.89,2.89,0,0,0-4.38,0h0v8.91h4.38V83.9Z"/><polygon class="cls-2" points="262.63 102.98 262.63 113.71 267.01 113.71 267.01 102.98 262.63 102.98 262.63 102.98"/><polygon class="cls-2" points="270.13 102.98 270.13 113.71 274.51 113.71 274.51 102.98 270.13 102.98 270.13 102.98"/><polygon class="cls-2" points="277.49 102.98 277.49 113.71 281.87 113.71 281.87 102.98 277.49 102.98 277.49 102.98"/><polygon class="cls-2" points="262.65 123.36 262.65 134.16 267.02 134.16 267.02 123.36 262.65 123.36 262.65 123.36"/><polygon class="cls-2" points="270.13 123.36 270.13 134.16 274.51 134.16 274.51 123.36 270.13 123.36 270.13 123.36"/><polygon class="cls-2" points="277.63 123.36 277.63 134.16 282 134.16 282 123.36 277.63 123.36 277.63 123.36"/><polygon class="cls-2" points="262.59 141.06 262.59 146.79 267.04 146.79 267.04 141.06 262.59 141.06 262.59 141.06"/><polygon class="cls-2" points="270.1 141.06 270.1 146.79 274.55 146.79 274.55 141.06 270.1 141.06 270.1 141.06"/><polygon class="cls-2" points="277.61 141.06 277.61 146.79 282.06 146.79 282.06 141.06 277.61 141.06 277.61 141.06"/><path class="cls-2" d="M440,83.9a2.89,2.89,0,0,1,4.38,0h0v8.91H440V83.9Z"/><path class="cls-2" d="M432.44,83.9a2.89,2.89,0,0,1,4.38,0h0v8.91h-4.38V83.9Z"/><path class="cls-2" d="M425.09,83.9a2.89,2.89,0,0,1,4.38,0h0v8.91h-4.38V83.9Z"/><polygon class="cls-2" points="444.33 102.98 444.33 113.65 439.95 113.65 439.95 102.98 444.33 102.98 444.33 102.98"/><polygon class="cls-2" points="436.82 102.98 436.82 113.65 432.44 113.65 432.44 102.98 436.82 102.98 436.82 102.98"/><polygon class="cls-2" points="429.47 102.98 429.47 113.65 425.09 113.65 425.09 102.98 429.47 102.98 429.47 102.98"/><polygon class="cls-2" points="429.33 123.05 429.33 134.16 424.95 134.16 424.95 123.05 429.33 123.05 429.33 123.05"/><polygon class="cls-2" points="436.82 123.05 436.82 134.16 432.44 134.16 432.44 123.05 436.82 123.05 436.82 123.05"/><polygon class="cls-2" points="444.31 123.05 444.31 134.16 439.93 134.16 439.93 123.05 444.31 123.05 444.31 123.05"/><polygon class="cls-2" points="429.35 141.06 429.35 146.79 424.9 146.79 424.9 141.06 429.35 141.06 429.35 141.06"/><polygon class="cls-2" points="436.86 141.06 436.86 146.79 432.41 146.79 432.41 141.06 436.86 141.06 436.86 141.06"/><polygon class="cls-2" points="444.36 141.06 444.36 146.79 439.91 146.79 439.91 141.06 444.36 141.06 444.36 141.06"/><path class="cls-2" d="M628.46,124.74a6.15,6.15,0,0,1,6.53,0h0v9.36h-6.53v-9.36Z"/><path class="cls-2" d="M628.46,103.17a6,6,0,0,1,6.53,0h0v10.6h-6.53v-10.6Z"/><path class="cls-2" d="M635.78,83.56V92h-8.1V83.56h0a7.59,7.59,0,0,1,8.1,0Z"/><polygon class="cls-2" points="632.42 66.92 632.42 69.13 631.03 69.13 631.03 66.92 632.42 66.92 632.42 66.92"/><path class="cls-2" d="M596.83,124.74a6.17,6.17,0,0,1,6.54,0h0v9.36h-6.54v-9.36Z"/><path class="cls-2" d="M604.15,83.56V92h-8.1V83.56h0a7.59,7.59,0,0,1,8.1,0Z"/><path class="cls-2" d="M596.83,103.17a6,6,0,0,1,6.54,0h0v10.6h-6.54v-10.6Z"/><path class="cls-2" d="M612.65,124.74a6.15,6.15,0,0,1,6.53,0h0v9.36h-6.53v-9.36Z"/><path class="cls-2" d="M612.65,103.17a6,6,0,0,1,6.53,0h0v10.6h-6.53v-10.6Z"/><path class="cls-2" d="M620,83.56V92h-8.1V83.56h0a7.58,7.58,0,0,1,8.09,0Z"/><polygon class="cls-2" points="616.61 66.92 616.61 69.13 615.22 69.13 615.22 66.92 616.61 66.92 616.61 66.92"/><path class="cls-2" d="M581,124.74a6.15,6.15,0,0,1,6.53,0h0v9.36H581v-9.36Z"/><path class="cls-2" d="M581,103.17a6,6,0,0,1,6.53,0h0v10.6H581v-10.6Z"/><path class="cls-2" d="M588.34,83.56V92h-8.1V83.56h0a7.59,7.59,0,0,1,8.1,0Z"/><polygon class="cls-2" points="600.79 66.92 600.79 69.13 599.4 69.13 599.4 66.92 600.79 66.92 600.79 66.92"/><polygon class="cls-2" points="584.98 66.92 584.98 69.13 583.59 69.13 583.59 66.92 584.98 66.92 584.98 66.92"/><path class="cls-2" d="M517.77,124.74a6.15,6.15,0,0,1,6.53,0h0v9.36h-6.53v-9.36Z"/><path class="cls-2" d="M525.08,83.56V92H517V83.56h0a7.59,7.59,0,0,1,8.1,0Z"/><path class="cls-2" d="M517.77,103.17a6,6,0,0,1,6.53,0h0v10.6h-6.53v-10.6Z"/><path class="cls-2" d="M565.21,124.74a6.15,6.15,0,0,1,6.53,0h0v9.36h-6.53v-9.36Z"/><path class="cls-2" d="M565.21,103.17a6,6,0,0,1,6.53,0h0v10.6h-6.53v-10.6Z"/><path class="cls-2" d="M549.39,124.74a6.17,6.17,0,0,1,6.54,0h0v9.36h-6.54v-9.36Z"/><path class="cls-2" d="M549.39,103.17a6,6,0,0,1,6.54,0h0v10.6h-6.54v-10.6Z"/><path class="cls-2" d="M572.52,83.56V92h-8.1V83.56h0a7.59,7.59,0,0,1,8.1,0Z"/><polygon class="cls-2" points="569.17 66.92 569.17 69.13 567.78 69.13 567.78 66.92 569.17 66.92 569.17 66.92"/><path class="cls-2" d="M556.71,83.56V92h-8.1V83.56h0a7.59,7.59,0,0,1,8.1,0Z"/><polygon class="cls-2" points="553.36 66.92 553.36 69.13 551.96 69.13 551.96 66.92 553.36 66.92 553.36 66.92"/><path class="cls-2" d="M533.58,124.74a6.15,6.15,0,0,1,6.53,0h0v9.36h-6.53v-9.36Z"/><path class="cls-2" d="M533.58,103.17a6,6,0,0,1,6.53,0h0v10.6h-6.53v-10.6Z"/><path class="cls-2" d="M540.89,83.56V92H532.8V83.56h0a7.58,7.58,0,0,1,8.09,0Z"/><polygon class="cls-2" points="537.54 66.92 537.54 69.13 536.15 69.13 536.15 66.92 537.54 66.92 537.54 66.92"/><polygon class="cls-2" points="521.73 66.92 521.73 69.13 520.34 69.13 520.34 66.92 521.73 66.92 521.73 66.92"/><path class="cls-2" d="M486.14,124.74a6.15,6.15,0,0,1,6.53,0h0v9.36h-6.53v-9.36Z"/><path class="cls-2" d="M493.45,83.56V92h-8.09V83.56h0a7.58,7.58,0,0,1,8.09,0Z"/><path class="cls-2" d="M486.14,103.17a6,6,0,0,1,6.53,0h0v10.6h-6.53v-10.6Z"/><path class="cls-2" d="M502,124.74a6.17,6.17,0,0,1,6.54,0h0v9.36H502v-9.36Z"/><path class="cls-2" d="M502,103.17a6,6,0,0,1,6.54,0h0v10.6H502v-10.6Z"/><path class="cls-2" d="M509.27,83.56V92h-8.1V83.56h0a7.59,7.59,0,0,1,8.1,0Z"/><polygon class="cls-2" points="505.91 66.92 505.91 69.13 504.52 69.13 504.52 66.92 505.91 66.92 505.91 66.92"/><path class="cls-2" d="M470.32,124.74a6.17,6.17,0,0,1,6.54,0h0v9.36h-6.54v-9.36Z"/><path class="cls-2" d="M470.32,103.17a6,6,0,0,1,6.54,0h0v10.6h-6.54v-10.6Z"/><polygon class="cls-2" points="490.1 66.92 490.1 69.13 488.71 69.13 488.71 66.92 490.1 66.92 490.1 66.92"/><path class="cls-2" d="M477.64,83.56V92h-8.1V83.56h0a7.59,7.59,0,0,1,8.1,0Z"/><polygon class="cls-2" points="474.29 66.92 474.29 69.13 472.9 69.13 472.9 66.92 474.29 66.92 474.29 66.92"/><path class="cls-2" d="M454.51,124.74a6.15,6.15,0,0,1,6.53,0h0v9.36h-6.53v-9.36Z"/><path class="cls-2" d="M454.51,103.17a6,6,0,0,1,6.53,0h0v10.6h-6.53v-10.6Z"/><path class="cls-2" d="M461.83,83.56V92h-8.1V83.56h0a7.59,7.59,0,0,1,8.1,0Z"/><polygon class="cls-2" points="458.47 66.92 458.47 69.13 457.08 69.13 457.08 66.92 458.47 66.92 458.47 66.92"/><path class="cls-2" d="M685,124.63v9.47h-3.69v-9.47h0a3.74,3.74,0,0,1,3.69,0Z"/><path class="cls-2" d="M681.32,103.1v10.39H685V103.1h0a3.42,3.42,0,0,0-3.69,0Z"/><path class="cls-2" d="M690.92,124.63v9.47h-3.69v-9.47h0a3.72,3.72,0,0,1,3.68,0Z"/><path class="cls-2" d="M690.92,103.1v10.39h-3.69V103.1h0a3.4,3.4,0,0,1,3.68,0Z"/><path class="cls-2" d="M690.74,83.53v8.31H687.4V83.53h0a3.23,3.23,0,0,1,3.34,0Z"/><polygon class="cls-2" points="687.15 62.8 685.14 62.8 685.14 67.25 687.15 67.25 687.15 62.8 687.15 62.8"/><polygon class="cls-2" points="690.71 62.8 688.69 62.8 688.69 67.25 690.71 67.25 690.71 62.8 690.71 62.8"/><path class="cls-2" d="M672.32,103.1v10.39h-3.68V103.1h0a3.4,3.4,0,0,1,3.68,0Z"/><path class="cls-2" d="M672.32,124.63v9.47h-3.68v-9.47h0a3.72,3.72,0,0,1,3.68,0Z"/><path class="cls-2" d="M666.41,124.63v9.47h-3.68v-9.47h0a3.72,3.72,0,0,1,3.68,0Z"/><path class="cls-2" d="M662.73,103.1v10.39h3.68V103.1h0a3.4,3.4,0,0,0-3.68,0Z"/><path class="cls-2" d="M672.15,83.53v8.31h-3.34V83.53h0a3.23,3.23,0,0,1,3.34,0Z"/><polygon class="cls-2" points="672.06 62.8 670.04 62.8 670.04 67.25 672.06 67.25 672.06 62.8 672.06 62.8"/><path class="cls-2" d="M681.15,83.53v8.31h3.34V83.53h0a3.23,3.23,0,0,0-3.34,0Z"/><polygon class="cls-2" points="683.6 62.8 681.58 62.8 681.58 67.25 683.6 67.25 683.6 62.8 683.6 62.8"/><path class="cls-2" d="M662.56,83.53v8.31h3.33V83.53h0a3.21,3.21,0,0,0-3.33,0Z"/><polygon class="cls-2" points="665 62.8 662.99 62.8 662.99 67.25 665 67.25 665 62.8 665 62.8"/><polygon class="cls-2" points="668.51 62.8 666.49 62.8 666.49 67.25 668.51 67.25 668.51 62.8 668.51 62.8"/><path class="cls-2" d="M653.73,124.63v9.47H650v-9.47h0a3.74,3.74,0,0,1,3.69,0Z"/><path class="cls-2" d="M647.82,124.63v9.47h-3.69v-9.47h0a3.74,3.74,0,0,1,3.69,0Z"/><path class="cls-2" d="M653.73,103.1v10.39H650V103.1h0a3.42,3.42,0,0,1,3.69,0Z"/><path class="cls-2" d="M644.13,103.1v10.39h3.69V103.1h0a3.42,3.42,0,0,0-3.69,0Z"/><path class="cls-2" d="M653.55,83.53v8.31h-3.33V83.53h0a3.21,3.21,0,0,1,3.33,0Z"/><path class="cls-2" d="M644,83.53v8.31h3.34V83.53h0a3.23,3.23,0,0,0-3.34,0Z"/><polygon class="cls-2" points="653.47 62.8 651.45 62.8 651.45 67.25 653.47 67.25 653.47 62.8 653.47 62.8"/><polygon class="cls-2" points="646.36 62.8 644.34 62.8 644.34 67.25 646.36 67.25 646.36 62.8 646.36 62.8"/><polygon class="cls-2" points="649.91 62.8 647.9 62.8 647.9 67.25 649.91 67.25 649.91 62.8 649.91 62.8"/><polygon class="cls-2" points="681.29 146.89 685.04 146.89 685.04 141.06 681.29 141.06 681.29 146.89 681.29 146.89"/><polygon class="cls-2" points="687.2 146.89 690.6 146.89 690.6 141.06 687.2 141.06 687.2 146.89 687.2 146.89"/><polygon class="cls-2" points="662.69 146.89 666.45 146.89 666.45 141.06 662.69 141.06 662.69 146.89 662.69 146.89"/><polygon class="cls-2" points="644.1 146.89 647.85 146.89 647.85 141.06 644.1 141.06 644.1 146.89 644.1 146.89"/><polygon class="cls-2" points="650.01 146.89 653.41 146.89 653.41 141.06 650.01 141.06 650.01 146.89 650.01 146.89"/><polygon class="cls-2" points="668.6 146.89 672.01 146.89 672.01 141.06 668.6 141.06 668.6 146.89 668.6 146.89"/><path class="cls-2" d="M67.27,50.26H61.53L49,33.09V27.53l-.36-1.34-1-1-.1-.1V25l-.18-2.53L47.18,25v.11l-.11.1-.92.85-.42,1.19H33.11l-.42-1.19-.92-.85-.11-.1V25l-.17-2.53L31.32,25v.11l-.11.1-1,1-.36,1.34v5.56H29.8L13.45,55.49v.43H28.21v-2.4l.37-.22a6.59,6.59,0,0,1,1.55-3.11,6.73,6.73,0,0,1,1.56,3.13l.34.2v2.4H46.8v-2.4l.36-.22a6.68,6.68,0,0,1,1.56-3.11,6.61,6.61,0,0,1,1.55,3.13l.35.2v2.4H65.41v-.2h0v-2.2l.37-.22a6.54,6.54,0,0,1,1.49-3ZM30.59,27.43h1.75v3.7H30.59v-3.7Zm15.88,0h1.76v3.7H46.47v-3.7Z"/><path class="cls-2" d="M639.7,50.26h5.74L658,33.09V27.53l.36-1.34,1-1,.1-.1V25l.17-2.53.18,2.53v.11l.1.1.92.85.42,1.19h12.63l.42-1.19.92-.85.1-.1V25l.18-2.53.17,2.53v.11l.1.1,1,1,.36,1.34v5.56h.06l16.35,22.4v.43H678.76v-2.4l-.37-.22a6.69,6.69,0,0,0-1.55-3.11,6.63,6.63,0,0,0-1.56,3.13l-.35.2v2.4H660.16v-2.4l-.36-.22a6.53,6.53,0,0,0-1.55-3.11,6.66,6.66,0,0,0-1.56,3.13l-.34.2v2.4H641.56v-.2h0v-2.2l-.36-.22a6.65,6.65,0,0,0-1.49-3Zm36.68-22.83h-1.76v3.7h1.76v-3.7Zm-15.89,0h-1.75v3.7h1.75v-3.7Z"/><path class="cls-2" d="M30.16,197.25h7.15a5.8,5.8,0,0,1-1.84-4.54V175.25a5.75,5.75,0,0,1,1.84-4.51H29.7a1.92,1.92,0,0,1,.23.73,1.07,1.07,0,0,1-.07.34l-5.73,16.81a34.09,34.09,0,0,0-1.19,4.93,30.24,30.24,0,0,0-1.22-4.93L16,171.81a.59.59,0,0,1,0-.26,1.47,1.47,0,0,1,.27-.81H8.66a5.8,5.8,0,0,1,1.87,4.51v17.46a5.85,5.85,0,0,1-1.87,4.54h6.91a5.85,5.85,0,0,1-1.87-4.54V178a19.36,19.36,0,0,0-.42-4.39c.42,1.53.88,3.06,1.37,4.51l6,17.26a2.82,2.82,0,0,1,.16,1,3.1,3.1,0,0,1-.08.84H25a3.1,3.1,0,0,1-.08-.84,3.05,3.05,0,0,1,.15-1L31,178.12c.5-1.49,1-3,1.38-4.51A27.84,27.84,0,0,0,32,178v14.71a5.85,5.85,0,0,1-1.87,4.54Zm41.52-22v12.57c0,3.06.19,5.31,1.3,6.91,1.53,2.18,4,3.07,7.64,3.07s6.15-.93,7.68-3.07c1.14-1.6,1.3-3.89,1.3-6.91V175.25a5.83,5.83,0,0,1,1.83-4.51h-7a5.8,5.8,0,0,1,1.87,4.51v12.84c0,4.66-1.11,6.61-5.54,6.61s-5.57-2-5.57-6.61V175.25a5.8,5.8,0,0,1,1.87-4.51H69.81a5.8,5.8,0,0,1,1.87,4.51Zm5.92-7.18h1.15l3.44-3.63c.65-.69,1-1.14,1-1.72a1.41,1.41,0,0,0-1.34-1.37c-.72,0-1.3.53-1.79,1.6l-2.49,5.12Zm4.59,0h1.1l4.13-3.51c.8-.69,1.18-1.26,1.18-1.8a1.29,1.29,0,0,0-1.33-1.37c-.69,0-1.26.45-1.84,1.41l-3.24,5.27Zm58,2.67H123.9a5.8,5.8,0,0,1,1.87,4.51v17.46a5.85,5.85,0,0,1-1.87,4.54h16.92a4.51,4.51,0,0,1,2.79.89v-9c-2,4.35-4.74,5.38-9.9,5.38-3.09,0-4.43-.65-4.43-3v-6.83H134a5.39,5.39,0,0,1,5,2.37v-7.53a5.39,5.39,0,0,1-5,2.37h-4.74v-5.66c0-2.06,1.23-2.78,4.05-2.78,5,0,7.87,1.37,9.48,5.08v-8.71a4.31,4.31,0,0,1-2.6.91Zm56.42,27.4V187.9c0-2.07.3-3.6,1-4.55h-6.84a5.4,5.4,0,0,1,2.25,4.55v2.44c0,2.6-2.29,4.55-5.8,4.55-4.36,0-7.11-3.86-7.11-10.62,0-7.07,2.87-11,7.22-11,3.78,0,5.92,2.18,8.37,6.92V170a3.39,3.39,0,0,1-2.33,1c-1.11,0-3-.84-5.73-.84-7.11,0-11.23,5.08-11.23,14.44,0,8.63,3.82,13.15,11,13.15,3.28,0,5.42-1,6.53-1a3.26,3.26,0,0,1,2.6,1.38ZM244,174.87l-4.78,9.43-4.66-9.43a6.14,6.14,0,0,1-.72-2.37,2.52,2.52,0,0,1,.84-1.76h-7.27a14.81,14.81,0,0,1,2.68,3.67l7.19,13.64v4.66a5.83,5.83,0,0,1-1.88,4.54h7.26a5.83,5.83,0,0,1-1.83-4.54v-4.85L248,174.41a16,16,0,0,1,2.71-3.67h-6.8a2.58,2.58,0,0,1,.88,1.76,6.66,6.66,0,0,1-.76,2.37Zm53.09-4.13H280.81a5.8,5.8,0,0,1,1.87,4.51v17.46a5.85,5.85,0,0,1-1.87,4.54h16.92a4.51,4.51,0,0,1,2.79.89v-9c-2,4.35-4.73,5.38-9.89,5.38-3.1,0-4.43-.65-4.43-3v-6.83h4.73a5.38,5.38,0,0,1,5,2.37v-7.53a5.38,5.38,0,0,1-5,2.37H286.2v-5.66c0-2.06,1.22-2.78,4.05-2.78,5,0,7.87,1.37,9.47,5.08v-8.71a4.31,4.31,0,0,1-2.6.91Zm47.21,22V175.86c0-1.75.54-2.48,2.14-2.48,2.71,0,4.89,2.06,6,6.07v-9.62a3,3,0,0,1-2,.91H334.59a2.94,2.94,0,0,1-1.95-.91v9.62c1.15-4,3.29-6.07,6-6.07,1.57,0,2.1.73,2.1,2.48v16.85a5.83,5.83,0,0,1-1.83,4.54h7.22a5.8,5.8,0,0,1-1.84-4.54Zm56.27-22H384.29a5.8,5.8,0,0,1,1.87,4.51v17.46a5.85,5.85,0,0,1-1.87,4.54h16.92a4.51,4.51,0,0,1,2.79.89v-9c-2,4.35-4.74,5.38-9.9,5.38-3.09,0-4.43-.65-4.43-3v-6.83h4.74a5.39,5.39,0,0,1,5,2.37v-7.53a5.39,5.39,0,0,1-5,2.37h-4.74v-5.66c0-2.06,1.23-2.78,4.05-2.78,5,0,7.87,1.37,9.48,5.08v-8.71a4.33,4.33,0,0,1-2.6.91Zm58,26.51h7.14a5.83,5.83,0,0,1-1.83-4.54V175.25a5.78,5.78,0,0,1,1.83-4.51h-7.6a1.92,1.92,0,0,1,.23.73,1.07,1.07,0,0,1-.07.34l-5.73,16.81a34.09,34.09,0,0,0-1.19,4.93,30.24,30.24,0,0,0-1.22-4.93l-5.77-16.81a.59.59,0,0,1,0-.26,1.47,1.47,0,0,1,.27-.81h-7.52a5.8,5.8,0,0,1,1.87,4.51v17.46a5.85,5.85,0,0,1-1.87,4.54H444a5.85,5.85,0,0,1-1.87-4.54V178a19.36,19.36,0,0,0-.42-4.39c.42,1.53.88,3.06,1.37,4.51l6,17.26a2.82,2.82,0,0,1,.15,1,3.53,3.53,0,0,1-.07.84h4.28a3.1,3.1,0,0,1-.08-.84,3.05,3.05,0,0,1,.15-1l5.92-17.26c.5-1.49,1-3,1.38-4.51a27.84,27.84,0,0,0-.31,4.39v14.71a5.85,5.85,0,0,1-1.87,4.54Zm74.87-18.75v14.21a5.83,5.83,0,0,1-1.83,4.54h7.14a5.83,5.83,0,0,1-1.83-4.54V173.15a10.19,10.19,0,0,1,.38-2.94H534a4.17,4.17,0,0,1,.38,1.87c0,2.41-1.11,3.63-3.25,3.63a4.57,4.57,0,0,1-2-.5v3.9a2.87,2.87,0,0,1,1.94-.61Zm47.29,18.75h8.06a4,4,0,0,1-1.34-2.86,9.23,9.23,0,0,1,.61-2.83l5.54-15.32a15.61,15.61,0,0,1,3.29-5.5H580a4.85,4.85,0,0,1-2.82-.87v9.47c2.21-4.24,5.31-6.23,9.78-6.23,2.17,0,3.2.61,3.2,2a4.64,4.64,0,0,1-.34,1.53L585,190a18.25,18.25,0,0,1-4.28,7.25Zm56.84-12.75c4.08,0,6.41,2,6.41,5.23s-2.33,5.27-6.41,5.27-6.42-2-6.42-5.27,2.33-5.23,6.42-5.23Zm0-11.5c3.43,0,5.38,1.64,5.38,4.35s-2,4.43-5.38,4.43-5.35-1.68-5.35-4.43,1.95-4.35,5.35-4.35Zm5.5,9.89a5.67,5.67,0,0,0,3.44-5.58c0-4.43-3.29-7.1-8.94-7.1s-8.9,2.67-8.9,7.1a5.62,5.62,0,0,0,3.4,5.58,6.8,6.8,0,0,0-4.44,6.76c0,5.08,3.56,8.15,9.94,8.15s10-3.07,10-8.15a6.83,6.83,0,0,0-4.47-6.76Zm36.51,15a3.35,3.35,0,0,1,2.07-.62h14.05a3.65,3.65,0,0,1,2.33.89V187.32c-1.07,2.6-1.95,4.51-3.36,5.73s-3.44,1.61-6.34,1.61c-3.25,0-4.55-.31-4.55-1.91,0-2,2.41-4.05,6.69-7.15,2.71-1.94,4.7-3.36,5.58-4.81a7.55,7.55,0,0,0,1.14-4c0-4-2.75-6.61-7.33-6.61-2.79,0-5.08.92-6.84.92a3.67,3.67,0,0,1-2.67-1.07v9.89c2.37-4.43,5.5-6.8,9.09-6.8,2.63,0,4.2,1.42,4.2,3.71,0,1.83-.95,2.75-2.41,4.05-1,.91-3.28,2.29-6.22,4.66-3.75,3-5.5,6.34-5.5,10.81,0,.49,0,1,.07,1.53Z"/><path class="cls-2" d="M16.21,83.53V92h3.34V83.53h0a3.19,3.19,0,0,0-3.34,0Z"/><path class="cls-3" d="M316.8,87.3c-1.07-3.44-5.21-5.91-9.9-5.91s-9,2.62-10,6.18m43.24-.27c-1.08-3.44-5.21-5.91-9.9-5.91s-9,2.62-10,6.18m43.15-.27c-1.07-3.44-5.2-5.91-9.9-5.91s-9,2.62-10,6.18m43.19-.27c-1.07-3.44-5.21-5.91-9.9-5.91s-9,2.62-10,6.18M410,87.3c-1.07-3.44-5.2-5.91-9.89-5.91s-9,2.62-10,6.18"/><path class="cls-4" d="M353.48,124.81a7.32,7.32,0,0,0-7.31,7.3h0m7.31-7.3a7.32,7.32,0,0,0-7.31,7.3h0m14.61,0a7.32,7.32,0,0,0-7.3-7.3h0m7.3,7.3a7.32,7.32,0,0,0-7.3-7.3h0"/><path class="cls-5" d="M353.48,119.42H452.2M415.5,64.25h-62m0,2.06h64.28m-52.63-7.06H353.48m0-5H354m.18-2.22h-1.32m10.4,9.71h-9.74m0,9h64.38m16.77,47.18H353.48m-8.59-3.44h17.18m-8.59-41.12h64.45M361.65,147.6H345.3M209.64,73.32H70.47m75.92,65.37H130.58m15.81-23.93H130.58m15.81,2.61H130.58m15.81-45.88H130.58m0,7.3h15.81m-15.81-12.2h5.12m59.49,52.83H114.76M65,60.54H13.84m25.59,53.28H7.82m1-35H39.43m0-8.86H9.19m30.24,68.76H8.65m17.57-21.32H21.71m17.72-45.1H14.7m56.57,47.15H7.6m7.73-25.77H26.69m.11-.89H15.22M27.53,137.4H14.15M8.93,113.72V78.79m5.22,34.93V78.79"/><path class="cls-4" d="M20,132.75a.11.11,0,0,0-.11.1h0m.11-.1a.11.11,0,0,0-.11.1h0m1.81,0a.11.11,0,0,0-.1-.1h0m.1.1a.11.11,0,0,0-.1-.1h0m-5.81.1a.1.1,0,0,0-.1-.1h0m.1.1a.1.1,0,0,0-.1-.1h0"/><path class="cls-6" d="M15.49,122.58v-3.16m0,3.16H14.15m1.58,10.17H8.6m5.55,2.08H8.52m5.11-3.12v1m.52-1v-9.13m0,9.13h-.52m.52,5.69v-2.57m7.49-2.08H20M20,117.37H14.41m-5.74-2.61H8.52m13.19,2.61H20M14.7,72.27H8.39m6.83,20.49v.11m.11.78v-.78m-.11,0h.11m0-.11.78-.15m9.8,0h-9.8m-2.22-32v9.36m-4.7-9.38v9.39m4.7-2.61H9.2M70.45,137.4H80m3.13-20h-13m13,21.32H70.43m12.71,0H67.32m2.77-45.82H80.37m-.1.78H70.19"/><path class="cls-4" d="M26,132.75a.11.11,0,0,0-.11.1h0m.11-.1a.11.11,0,0,0-.11.1h0m8.59,0a.11.11,0,0,0-.11-.1h0m.11.1a.11.11,0,0,0-.11-.1h0m4.31,0a.1.1,0,0,0-.1.1h0m.1-.1a.1.1,0,0,0-.1.1h0m1.8,0a.1.1,0,0,0-.1-.1h0m.1.1a.1.1,0,0,0-.1-.1h0m4.31,0a.1.1,0,0,0-.1.1h0m.1-.1a.1.1,0,0,0-.1.1h0"/><path class="cls-7" d="M83.14,114.76h-13m13,4.66H71.27M83.14,71.49H73.27m-3.34,7.3H83.14m-43.71,35H70.71m-.71-35H39.43m0-8.86H69.66M51.07,67.32H46.38m4.69-6.78H46.38m-7,78.15h31m-19.1-3.86H46.12m-1.58-2.08h8.38M39.43,72.27H64.16M32.74,113.72V78.79m-5.21,34.93V78.79m18.59,34.93V78.79m0,58.61H32.74m1.34-14.82v-3.16m-7.89,3.16v-3.16m7.89,3.16H32.74m-5.21,0H26.19m1.34,12.25h5.21m1.58-2.08H26m2.1-1v1m-.52-1v-9.13m0,9.13h.52m-.52,3.12v2.57m4.69-5.69v1m.52-1v-9.13m0,9.13h-.52m.52,5.69v-2.57m-5.47-17.46H26.22m18.56,5.21v-3.16m1.34,3.16H44.78m-4.55,10.17h-1.6m7.49-1v-9.13m.52,9.13v1m-.52-1h.52m-.52,3.12v2.57m-.26-20H33m.89-23.72H45.29m-18.6-.78h.11m-.11-.11-.78-.15m.78,1v-.78m.11-.11v.11m1-25.55h4.69m-4.66-6.78h4.66"/><path class="cls-4" d="M53,132.85a.11.11,0,0,0-.1-.1h0m.1.1a.11.11,0,0,0-.1-.1h0m4.31,0a.11.11,0,0,0-.11.1h0m.11-.1a.11.11,0,0,0-.11.1h0m1.81,0a.11.11,0,0,0-.11-.1h0m.11.1a.11.11,0,0,0-.11-.1h0m4.31,0a.11.11,0,0,0-.1.1h0m.1-.1a.11.11,0,0,0-.1.1h0"/><path class="cls-5" d="M27.79,60.54v9.37m4.69-9.36v9.36m13.9-9.35v9.35M70.71,101V93.65m-6,20.07V78.79m5.21,34.93V78.79m-18.6,34.93V78.79m12.05,43.79v-3.16m-4.49-2h5.56m.27,5.21H63.38m-.25,10.17h7.13m-6.33-18.82v-.11M51.33,137.4H64.72m-12-14.82v-3.16m0,3.16H51.33m0,9.13h-.52m.52,0v-9.13m-.52,9.13v1m.52,2.08v2.57m7.49-4.65H57.23m-4.59-15.38h4.52m-5.56,0h1m4.52,0h1.73m12.86,2v3.16m-1.3,0h1.3m-1.3,12.25v2.57m1.2-4.65H70.19m.26-1v-9.13M72,137.4H70.19"/><path class="cls-4" d="M71.75,132.85a.1.1,0,0,0-.1-.1h0m.1.1a.1.1,0,0,0-.1-.1h0"/><path class="cls-5" d="M64.72,134.83h5.73m-5.73-3.12h.52m5.21,0h-.26m-5.47,0v-9.13m.52,9.13v1m5.21,1.08h0m-5.71,3.57v-2.57m7-20.07v2.61m4.26,2h1M52.52,93.65H63.88M51.07,60.57v9.34m18.86,8.88v2.88m.26,12V93m-.1-.1.88-.26m-.88.36v-.1m.1.1h-.1m-.42-26.38h2.78m-7.61-6.05H65m-.82,11.73h6.32"/><path class="cls-4" d="M78.81,132.75a.11.11,0,0,0-.11.1h0m.11-.1a.11.11,0,0,0-.11.1h0m8.87,0a.11.11,0,0,0-.11-.1h0m.11.1a.11.11,0,0,0-.11-.1h0"/><path class="cls-5" d="M65,60.54v9.37m0-9.37h4.64m2.78,6.05v3.58m29.63,67.23h9.55m3.13,1.29H99m15.81-23.93H99m15.81,2.61H99m6.08,2h1m8.69-47.93H99m0,7.3h15.81m0,40.63H99M79.75,101V93.65m6.51,43.75h9.56M99,138.69H83.14M99,114.76H83.14M99,117.37H83.14m15.81,2H83.14m-4.44,0v3.16m8.87-3.16v3.16m-8.87,0H80m6.25,0h1.31m-.11,10.17H83.14M80,137.4v-2.57m.52-3.12v1m-1.72,0h4.33M80,122.58v9.13m0,0h.52m5.73,3.12v2.57m0-5.69v-9.13m-.52,9.13v1m.52-1h-.52m-1.8-12.29h1m-1,0h1m-6.28-4.66v2.61m0,2h1m1.59,0h1m5.23-4.66v2.61m-1,2h1m1.6,0h1m13.12,0v3.16m-8.86-3.16v3.16m7.56,0h1.3m-8.86,0h1.3m0,14.82v-2.57m0-12.25v9.13m.52,0v1m-.52-1h.52m5.74,3.12v2.57m0-5.69v-9.13m-.52,9.13v1m.52-1h-.52m-4.45-12.29h1m-3.63-4.66v2.61m-2.7,2h1.05m1.6,0h1m7.87-4.66v2.61m-3.63,2h1m1.6,0h1m-3.68,0h1M99,71.49H83.14m0,7.3H99m-18.42,0v2.88m5.21-2.88v2.88M80.37,93h-.1m0,.68V93m.1-.1V93m0-.1-.88-.26m3.65-26h5.12m-7.73,12.2V73.32M78,66.59v4.9m5.13-4.9H78m7.73,12.2V73.32m2.52-6.73v4.9m8.08,7.3v2.88m5.22-2.88v2.88M99,66.59H93.82m2.52,12.2V73.32m-2.52-6.73v4.9m7.74,7.3V73.32m2.52-6.73v4.9M99,66.59h5.13m13.81,70.81h9.56m-8.26-18v3.16m-1.3,0h1.3m11.39,16.11H114.76m4.43-23.93v2.61m11.39-2.61H114.76m15.82,2.61H114.76m3.44,2h1m-8.92,0v3.16m0,0h1.3m0,14.82v-2.57m0-12.25v9.13m.53,0v1m-.53-1h.53m5.73,3.12v2.57m0-5.69v-9.13m-.52,9.13v1m.52-1h-.52m-7-17v2.61m-2.69,2h1m1.6,0h1m4.24,0h1m-1,0h1m-3.68,0h1m12.19,0v3.16m0,0h1.3m0,14.82v-2.57m0-12.25v9.13m.52,0v1m-.52-1H128m-7.13-12.29h1m1.56,0h1m6.89,0h1m-6.27-4.66v2.61m-.06,2h1m1.59,0h1.05m.8-47.93H114.76m0,7.3h15.82m-15.82-12.2h5.13m-2.52,12.2v2.88m-5.21-2.88v2.88m0-2.88V73.32m2.6-6.73h-5.12m0,0v4.9m7.73,7.3V73.32M128,78.79v2.88m-2.52-15.08v4.9m5.13-4.9h-5.13m-5.56,0v4.9m8.08,7.3V73.32"/><path class="cls-4" d="M288.43,58.94V57.76m-47.16,21h14.15m.21-5.47H241.27m14.42-1.83H241.27m0-4.9h5.13m8.83,48.17h-14m14,2.61h-14M255,138.69H241.27m-50.1-19.27h63.67m-73.7,18h9.56m3.13,1.29H178m15.81-23.93H178m15.81,2.61H178m15.81-45.88H178m0,7.3h15.81m-31.63,59.9H146.39m15.81-23.93H146.39m15.81,2.61H146.39M162.2,71.49H146.39M254.7,113.82h-184m75.68-35H162.2m0-12.2h-5.12M135,119.42v3.16m7-3.16v3.16m0,0h1.3m-9.56,0H135M133.7,137.4h9.56m-9.56-2.57v2.57m0-5.69v-9.13m-.52,9.13v1m.52-1h-.52m10.08,5.69v-2.57m0-12.25v9.13m.52,0v1m-.52-1h.52m-8.77-17v2.61m7-2.61v2.61m8.86,2v3.16m7-3.16v3.16m0,0h1.31m-9.56,0h1.3m-1.3,14.82h9.56m-9.56-2.57v2.57m0-5.69v-9.13m-.52,9.13v1m.52-1H149m10.08,5.69v-2.57m0-12.25v9.13m.52,0v1m-.52-1h.52m-8.78-17v2.61m7-2.61v2.61M146.39,66.59h5.13m-7.74,12.2v2.88m-10.6-2.88v2.88m0-2.88V73.32m2.52-6.73v4.9m8.08,7.3V73.32m-2.52-6.73v4.9m5.13-4.9h-5.13m18.34,12.2v2.88M149,78.79v2.88m0-2.88V73.32m2.52-6.73v4.9m8.08,7.3V73.32m-2.52-6.73v4.9m8.25,65.91h9.56m-1.3-14.82h1.3M178,138.69H162.2M178,114.76H162.2M178,117.37H162.2m4.43,2v3.16m7-3.16v3.16m-8.26,0h1.3m-1.3,12.25v2.57m0-5.69v-9.13m-.52,9.13v1m.52-1h-.52m1.82-17v2.61m7-2.61v2.61m8.86,2v3.16m-1.31,0h1.31m-1.31,12.25v2.57m0-5.69v-9.13m-.52,9.13v1m.52-1h-.52m-5.73,5.69v-2.57m0-12.25v9.13m.52,0v1m-.52-1h.52m7-17v2.61M178,71.49H162.2m0,7.3H178m0-12.2h-5.13m-8.08,12.2v2.88m2.52-15.08v4.9m-5.13-4.9h5.13m-2.52,12.2V73.32m8.08-6.73v4.9m7.73,7.3v2.88m-5.21-2.88v2.88m5.21-2.88V73.32M178,66.59h5.12m-7.73,12.2V73.32m7.73-6.73v4.9m29.63,65.91h9.56m3.13,1.29H209.64m15.82-23.93H209.64m15.82,2.61H209.64m15.82-45.88H209.64m15.82,1.83H209.64m0,5.47h15.82M197,137.4h9.56m3.12,1.29H193.83m15.81-23.93H193.83m15.81,2.61H193.83m4.43,2v3.16m-8.86-3.16v3.16m7.56,0h1.3m-8.86,0h1.3m0,14.82v-2.57m0-12.25v9.13m.52,0v1m-.52-1h.52m5.74,3.12v2.57m0-5.69v-9.13m-.52,9.13v1m.52-1h-.52m-7-17v2.61m8.86-2.61v2.61m15.82,2v3.16m-8.87-3.16v3.16m7.56,0h1.31m-8.87,0h1.31m0,14.82v-2.57m0-12.25v9.13m.52,0v1m-.52-1H207m5.73,3.12v2.57m0-5.69v-9.13m-.52,9.13v1m.52-1h-.52m-7-17v2.61m8.87-2.61v2.61m-4.44-45.88H193.83m0,7.3h15.81m-13.2,0v2.88m-5.22-2.88v2.88m2.61-15.08H199m-7.74,12.2V73.32m-2.52-6.73v4.9m5.13-4.9H188.7m7.74,12.2V73.32M199,66.59v4.9m13.29,7.3v2.88M207,78.79v2.88m2.6-15.08h-5.12M207,78.79V73.32m-2.52-6.73v4.9m7.73,7.3V73.33m2.52-6.74v4.9m-5.13-4.9h5.13m13.82,70.81h9.55m-9.55-14.82h1.3m11.38,16.11H225.46m15.81-23.93H225.46m15.81,2.61H225.46m-4.43,2v3.16m0,0h1.3m0,14.82v-2.57m0-12.25v9.13m0,0h.52m5.74,3.12v2.57m0-5.69v-9.13m-.53,9.13v1m.53-1h-.53m-5.21,0v1m-1.82-18v2.61m8.86,2v3.16m7-3.16v3.16m0,0h1.3m0,14.82v-2.57m0-12.25v9.13m.52,0v1m-.52-1h.52m-8.77-17v2.61m7-2.61v2.61m4.43-45.88H225.46m15.81,1.83H225.46m0,5.47h15.81m-15.81-12.2h5.12m-2.52,12.2v2.88m-5.21-2.88v2.88m2.61-15.08h-5.13m0,0v4.9m7.73,7.3V73.33m-5.21,5.46V73.33m15.81,5.46v2.88m-2.52-15.08v4.9m5.13-4.9h-5.13m-5.56,0v4.9m8.08,7.3V73.33m52,67.06H303m50.5-21H272.32m22.91-60.17h11.65m46.6,7.06H290m63.52,4.4H289.09m2.19-6.46h62.2m-56.33-2.5h9.73m-34.56,56.14h81.16m-55.19-.35H289.7m8.42-43.44v-.77m55.36,0H289M277.47,147v-6.08M282.2,147v-6.08m-15,6.08v-6.08M262.45,147v-6.08M270,147v-6.08m4.73,6.08v-6.08m16,.17v4.2m-29,2.21h10.49m.17-.4H270.1m2.22-.17H270m-5.14.17h-2.23m2.23-.17h-2.37m-.79,0v.57m.79-.57h-.79m10.67-64.21a3.27,3.27,0,0,0-2.25.91m2.25-.91a3.27,3.27,0,0,0-2.25.91M262.45,147l.14.1M270,147h-2.78m-.14.1h3.06m-3.06,0,.14-.1m-2.36.1H267m-2.22-.17h2.36m2.92.17L270,147m12.68.5H272.15m5.46-.4h-3.06m3.06,0-.14-.1m2.36-.07h-2.36m-2.78.07h2.78m-2.92.1.14-.1m-2.37.1h2.23m-2.23-.17h2.37m7.95,0v.57m-.79-.57h.79m-.44.07-.14.1m-2.23,0h-2.22m2.22,0h2.23m-2.23-.17h2.37m-17.38-53h7.5m0-.71h-7.5m0,0h7.5m-18.17,26.24h18.17m0-5.49H254.79m17.53,0H270m2.34-49.68H254.51M274.67,123H270m2.34-52.21H258.65m-2.78-9.06h32.91m-33.26,4.56h16.8m0,7H255.63m16.69,5.11H255.69M270,102.77h2.34m0,15.12H253.56m18.76-3.37H254.79m17.53,26.4H270m2.36,0H270m-7.49-82h9.85m0,79H255.16m-9.46-18.54v3.16m7-3.16v3.16m2.58-2.08V138m-2.58-15.38H254m-9.56,0h1.3m9.53-2.08V138m0-17.46V138m-10.83-.56H254m-9.56-2.57v2.57m-.52-5.69v1m.52-1v-9.13m0,9.13h-.52M254,137.4v-2.57m.52-3.12v1M254,122.58v9.13m0,3.12h1.27M254,131.71h.52m-8.78-17v2.61m7-2.61v2.61M267.18,123h-4.69m2.33,17.9h-2.37m0-17.9v11.4m4.69-11.4v11.4m-2.36,6.5h2.36M270,123v11.36m-2.82-20.45h-4.69m0-11.16h2.35m-2.35,11.16V102.77m0,0v11.16m4.69,0V102.77m0,0v11.16m0-11.16h-2.34M270,113.93V102.77m0,0v11.16M255.87,59.31h6.61M258,70.81h-2.35m-1.16,8v2.88m-10.6-2.88v2.88m0-2.88V73.33m2.52-6.74v4.9m8.08,7.3V73.33M252,66.59v4.9m3.91-4.9H252m12.86,16.13a3.27,3.27,0,0,0-2.25.91m2.25-.91a3.27,3.27,0,0,0-2.25.91m0,0a.39.39,0,0,0-.11.27h0m.11-.27a.39.39,0,0,0-.11.27h0m4.61-.27a3.31,3.31,0,0,0-2.25-.91h0m2.25.91a3.31,3.31,0,0,0-2.25-.91h0m2.36,1.18h0a.39.39,0,0,0-.11-.27m.11.27h0a.39.39,0,0,0-.11-.27m3,0a.4.4,0,0,0-.12.27h0m.12-.27a.4.4,0,0,0-.12.27h0m-5.14,10h-3m3-.71h-3m0,.71v-.71m.66-9.28V93m0,.14V83.9m4.73,0V93m0,.14V83.9m2.78,0V93m0,.14V83.9m-7.52-5.46V73.33M258,70.81h.66m-.66,0h.66m8.55,7.63V73.33m2.74,5.11V73.33m2.38,41.19h17.54m-17.54-.59h17.56m-17.56.59h17.54M272.32,138h17.11M282.16,123h-4.69m0,0v11.36m2.36,6.54h-2.36m-2.8-17.9v11.36m-2.35,6.54h2.37m-2.37,0h2.37m7.47-17.9v11.36m-2.33,6.54h2.37m-4.87-27H282m-4.69,0V102.77m0,0v11.16m0-11.16h2.35m-2.19,0h2.34m-7.51,11.16h2.35m0,0V102.77m0,0v11.16m0-11.16h-2.35m9.7,11.16V102.77m0,0v11.16m0-11.16h-2.34m-7.36-38.52h19m-9.12-5h6.26m-16.1,11.56H286m3.13-4.5H272.32m0,7H289m-11.59,10.3a.4.4,0,0,0-.12.27h0m.12-.27a.4.4,0,0,0-.12.27h0m2.37-1.18a3.27,3.27,0,0,0-2.25.91m2.25-.91a3.27,3.27,0,0,0-2.25.91m2.25-.91a3.27,3.27,0,0,0-2.25.91m2.25-.91a3.27,3.27,0,0,0-2.25.91m-2.85,0a3.31,3.31,0,0,0-2.25-.91h0m2.25.91a3.31,3.31,0,0,0-2.25-.91h0m2.36,1.18h0a.36.36,0,0,0-.12-.27m.12.27h0a.36.36,0,0,0-.12-.27m7.47.27h0a.36.36,0,0,0-.12-.27m.12.27h0a.36.36,0,0,0-.12-.27m0,0a3.31,3.31,0,0,0-2.25-.91h0m2.25.91a3.31,3.31,0,0,0-2.25-.91h0m2.25.91a3.31,3.31,0,0,0-2.25-.91h0m2.25.91a3.31,3.31,0,0,0-2.25-.91h0m-7.36-4.28H289m-9.13,15.45h-7.51m-.15,0h7.51m.15-.71h-7.51m7.36,0h-7.51m0,0h7.51m-2.37-9.28V93m0,.14V83.9m-2.62,0V93m0,.14V83.9m8.17,10v-.71m-3,.71h3m-3-.71h3M282,83.9V93m0,.14V83.9m-4.59-5.46V73.33m4.66-14.39h-9.79m2.39,19.5V73.33m7.5,5.11V73.33m-.1-14.39.05,0m11.16,2.78h-4.54m6.45-2.5h-6.45m0,2.5v-2.5m-2.12,11.56H286m.66,0H289m3.36,3.29v-.77m44.34,67.76v4.48M347,141.09v4.2m-23.29-4.2v4.41M322,147.6h16.34m-8.17-22.79a7.32,7.32,0,0,0-7.3,7.3h0m7.3-7.3a7.32,7.32,0,0,0-7.3,7.3h0m14.61,0a7.32,7.32,0,0,0-7.31-7.3h0m7.31,7.3a7.32,7.32,0,0,0-7.31-7.3h0M318.53,59.25h11.65m-9.74,2.5h9.74m-9.74,0h9.74m-8.59,52.7h17.18m-23.3,0H298.29m12.79,27.09h-8.83m0-.66h8.83m-8.83.66v-.66m0,0,.5-.07m8.33.07-.51-.07m.51.07v.66m-.51-.73h-7.82m20.93.28-.28-.1m0-.6v.6m-7.93-23.45h6.12m-3.06-58.29H306.88m9.74,2.5h-9.74m31.89,55.79h6.12m-3.06,22h-4.34m-.53.86h4.87m-5.14.7L337,141m0-.58V141m9.74-.58h-4.87m5.14.7-.27-.1m0-.6V141m-4.87-1.45h4.35m0,.86v-8.28m-4.34-72.86H330.18m9.74,2.5h-9.74m11.65-2.5h11.65m-9.74,2.5h9.74m-58.25-5.7h8m-41-6.74h10.09m-16.1,8.45h5.72m-5.19-6.71h5.17m-3.76-5h2.38M328.4,53.5a2.27,2.27,0,0,0-1.83,2.23v.09m1.83-2.32a2.27,2.27,0,0,0-1.83,2.23v.09m-20.26-2.46a8.82,8.82,0,0,0-1.2.13m1.2-.13a8.82,8.82,0,0,0-1.2.13m0,0a2.27,2.27,0,0,0-1.83,2.23v.09m1.83-2.32a2.27,2.27,0,0,0-1.83,2.23v.09m5.39-2.33a9.81,9.81,0,0,0-1.24-.13m1.24.13a9.81,9.81,0,0,0-1.24-.13m3.08,2.46v-.09a2.28,2.28,0,0,0-1.84-2.23m1.84,2.32v-.09a2.28,2.28,0,0,0-1.84-2.23m25.14,2.32v-.09A2.28,2.28,0,0,0,332,53.5m1.84,2.32v-.09A2.28,2.28,0,0,0,332,53.5m-2.36-.14a8.84,8.84,0,0,0-1.19.13m1.19-.13a8.84,8.84,0,0,0-1.19.13m3.54,0a9.43,9.43,0,0,0-1.24-.13m1.24.13a9.43,9.43,0,0,0-1.24-.13m22.19,0a8.67,8.67,0,0,0-1.19.13m1.19-.13a8.67,8.67,0,0,0-1.19.13m0,0a2.28,2.28,0,0,0-1.84,2.23v.09m1.84-2.32a2.28,2.28,0,0,0-1.84,2.23v.09m-65.74-9.76h2.37m1.42,11.7h-5.19m5.18-6.71h-5.18m-.29-1.74H272.32m10.26,1.74h.14m12.51,5H287.9m30.63,0h8m-8,0h-8m-7.23-.23v.23m3.61-1.79h-.48M306.22,52l.18,2.22M306.22,52h1.32m3,3.78v.23m-3.62-1.79h.49m.17-2.22-.17,2.22m34.46,1.79h-8m-3.61-1.79h.49m.17-2.22-.17,2.22m.17-2.22h-1.32m.66,2.22h-.49M329.52,52l.17,2.22m4.1,1.56v.23m8,0h8m0-.23v.23m3.62-1.79H353M352.82,52l.17,2.22m55.67,63.28h6.12m-3.06-58.29H400.07m9.74,2.5h-9.74m11.65-2.5H400.07m-29.8,81.84v4.2m13-4.2v4.2m-23.3-4.2v4.2m8.62,2.31H385m-.87-15.49a7.32,7.32,0,0,0-7.3-7.3h0m7.3,7.3a7.32,7.32,0,0,0-7.3-7.3h0m0,0a7.32,7.32,0,0,0-7.31,7.3h0m7.31-7.3a7.32,7.32,0,0,0-7.31,7.3h0m18.95-72.86H376.78m9.73,2.5h-9.73m-8.59,52.7h17.18M370,140.39h-4.86m-3.06-22.85h6.12m1.28,22h-8.68m-.53.86H370m-10,.7.28-.1m0-.6V141m.51-.58v-8.28m8.69,8.28v-8.28m.8,9L370,141m0-.6v.6m-4.86-81.74h11.65M367,61.75h9.74m14.7,52.7h17.18m-24.58,25.94v-8.28m-.8,9,.28-.1m-.28.1.28-.1m0-.6v.6m1.81-23.45h6.11m9.61,22.85h-1.6m-3.61,1.15h8.83m0-.66h-8.83m0,0,.5-.07m-.5.07v.66m.5-.73h7.82m.51.73v-.66m0,0-.51-.07M388.42,59.25h11.65m-9.73,2.5h9.73M439.77,147v-6.08M444.5,147v-6.08m-15,6.08v-6.08M424.76,147v-6.08M437,147v-6.08M432.27,147v-6.08m13,6.58H434.8m-.17-.4h2.23m-2.23-.17H437m-12.67.57H434.8m-5.45-.4h3.06m-3.06,0,.14-.1m-2.37-.07h2.37m-5.17,0v.57m.79-.57h-.79m.44.07.14.1m2.22,0h2.23m-2.23,0H424.9m2.22-.17h-2.36m7.65.17-.14-.1m2.36.1h-2.22m2.22-.17h-2.36m9.87.17h2.22m-2.22-.17h2.36m-4.59.17h-3.05m3.05,0-.14-.1m2.37.1h-2.23m2.23-.17h-2.37m-2.91.17.13-.1m8.3-.07v.57m-.79-.57h.79m-.79.07-.14.1m-7.48-63.47a3.27,3.27,0,0,0-2.25-.91h0m2.25.91a3.27,3.27,0,0,0-2.25-.91h0m-5,1.18h0a.39.39,0,0,0-.11-.27m.11.27h0a.39.39,0,0,0-.11-.27m0,0a3.29,3.29,0,0,0-2.25-.91h0m2.25.91a3.29,3.29,0,0,0-2.25-.91h0m2.25.91a3.29,3.29,0,0,0-2.25-.91h0m2.25.91a3.29,3.29,0,0,0-2.25-.91h0m-2.25.91a.39.39,0,0,0-.11.27h0m.11-.27a.39.39,0,0,0-.11.27h0m2.36-1.18a3.29,3.29,0,0,0-2.25.91m2.25-.91a3.29,3.29,0,0,0-2.25.91m2.25-.91a3.29,3.29,0,0,0-2.25.91m2.25-.91a3.29,3.29,0,0,0-2.25.91m9.6-.91a3.31,3.31,0,0,0-2.25.91m2.25-.91a3.31,3.31,0,0,0-2.25.91m0,0a.39.39,0,0,0-.11.27h0m.11-.27a.39.39,0,0,0-.11.27h0m-12-13.09H421m-.67,0H418m9.13,23.08h7.51m.16,0h-7.51m-.16-.71h7.51m-7.35,0h7.51m0,0h-7.51m2.36-9.28V93m0,.14V83.9m-5.54,10v-.71m3,.71h-3m3-.71h-3m.82-9.28V93m0,.14V83.9m7.35,0V93m0,.14V83.9m-2.77-5.46V73.33m-4.65-14.39h9.78m-9.89,19.5V73.33m.11-14.39,0,0m7.44,19.47V73.33M439.77,123h4.7m-2.33,17.9h2.36M439.77,123v11.4m2.37,6.5h-2.37M437,123v11.36M444.47,123v11.4m0-31.65h-2.34m-2.35,11v-11m0,0v11m0-11h2.35m-5.16,11v-11m0,0v11m7.5,0v-11m0,0v11m-.09-30.14a3.31,3.31,0,0,0-2.25-.91h0m2.25.91a3.31,3.31,0,0,0-2.25-.91h0m0,0a3.27,3.27,0,0,0-2.25.91m2.25-.91a3.27,3.27,0,0,0-2.25.91m0,0a.4.4,0,0,0-.12.27h0m.12-.27a.4.4,0,0,0-.12.27h0m-2.78,0h0a.39.39,0,0,0-.11-.27m.11.27h0a.39.39,0,0,0-.11-.27m7.62.27h0a.39.39,0,0,0-.11-.27m.11.27h0a.39.39,0,0,0-.11-.27"/><path class="cls-8" d="M451.09,59.31h-6.61M449,70.81h2.33m-9.16,23.08h3m-3-.71h3m-5.39-9.28V93m0,.14V83.9m-2.78,0V93m0,.14V83.9m8.17,10v-.71m-.66-9.28V93"/><path class="cls-4" d="M444.5,93.18V83.9m-4.74-5.46V73.33M437,78.44V73.33m7.51,5.11V73.33M449,70.81h-.66m-67.92-15v-.09a2.28,2.28,0,0,0-1.84-2.23m1.84,2.32v-.09a2.28,2.28,0,0,0-1.84-2.23m-23.3,0a9.43,9.43,0,0,0-1.24-.13m1.24.13a9.43,9.43,0,0,0-1.24-.13m3.08,2.46v-.09a2.27,2.27,0,0,0-1.83-2.23m1.83,2.32v-.09a2.27,2.27,0,0,0-1.83-2.23m19.74,0a2.28,2.28,0,0,0-1.84,2.23v.09M375,53.5a2.28,2.28,0,0,0-1.84,2.23v.09m3-2.46a9,9,0,0,0-1.2.13m1.2-.13a9,9,0,0,0-1.2.13m3.55,0a9.62,9.62,0,0,0-1.24-.13m1.24.13a9.62,9.62,0,0,0-1.24-.13m73.95,18.13h.05M411.72,56.05h-8m-15.27,0h-8m-15.26,0h8m-8,0h-8m0-.23v.23m-2.95-4L354,54.26m19.2,1.56v.23m7.23-.23v.23m-3.61-1.79h.48m.18-2.22-.18,2.22m24.59-.77a9.81,9.81,0,0,0-1.24-.13m1.24.13a9.81,9.81,0,0,0-1.24-.13m3.08,2.46v-.09a2.28,2.28,0,0,0-1.84-2.23m1.84,2.32v-.09a2.28,2.28,0,0,0-1.84-2.23m-2.35-.14a8.82,8.82,0,0,0-1.2.13m1.2-.13a8.82,8.82,0,0,0-1.2.13m0,0a2.27,2.27,0,0,0-1.83,2.23v.09m1.83-2.32a2.27,2.27,0,0,0-1.83,2.23v.09m-19-3.78h-1.33m.67,2.22h-.49M376.11,52l.18,2.22m12.13,1.79h8m3.61-1.79h.49m.17-2.22-.17,2.22m.17-2.22h-1.32m-3,3.78v.23m3.61-1.79h-.48M399.41,52l.18,2.22m4.1,1.56v.23m14.83,1.71h5.72m-5.18-6.71h5.18m-2.59-5h1.18m-11.11,10h7.34m2.59-10h-1.18m3.91,5h-.14m26.5,6.71H445m5.17-6.71H445m2.59-5h-1.18m1.18,0h1.18M71,92.61h8.52M57.12,132.85h1.81m4.1,0h8.72m7,0h8.87m-1.31,2H80m15.81,0h6.26m9.55,0h6.26m9.56,0h6.25m9.56,0h6.26m9.56,0h6.25m9.56,0h6.25m9.56,0H197m9.56,0h6.25m9.56,0h6.26m9.55,0h6.26M86.78,92.61H95.3m.78,1H86m-.1-.78H96.19M95.56,101V93.65m.63-.78-.89-.26m.89.26V93m-.11.68V93m.11,0h-.11m-10.18-.1.88-.26M86,93h-.1m0,0v-.1m.1.78V93m.52,8V93.65m8.1,39.1a.11.11,0,0,0-.1.1h0m.1-.1a.11.11,0,0,0-.1.1h0m8.86,0a.11.11,0,0,0-.1-.1h0m.1.1a.11.11,0,0,0-.1-.1h0m-8.76.1h8.86m-.1-.1H99m-4.33,0H99m3.65-40.14h8.51m.79,1H101.82m-.11-.78H112m-.63,8.11V93.65m.63-.78-.89-.26m.89.26V93m-.1.68V93m.1,0h-.1m-10.19-.1.89-.26m-.78.36h-.11m0,0v-.1m.11.78V93m.52,8V93.65m8.1,39.1a.11.11,0,0,0-.11.1h0m.11-.1a.11.11,0,0,0-.11.1h0m8.86,0a.1.1,0,0,0-.1-.1h0m.1.1a.1.1,0,0,0-.1-.1h0m-8.76.1h8.86m-.1-.1h-4.33m-4.32,0h4.32m3.65-40.14h8.52m.78,1H117.63m-.1-.78h10.28m-.62,8V93.65m.62-.78-.88-.26m.88.26V93m-.1.68V93m.1,0h-.1m-10.18-.1.88-.26m-.78.36h-.1m0,0v-.1m.1.78V93m.52,8V93.65m8.1,39.1a.1.1,0,0,0-.1.1h0m.1-.1a.1.1,0,0,0-.1.1h0m8.86,0a.11.11,0,0,0-.11-.1h0m.11.1a.11.11,0,0,0-.11-.1h0m-8.75.1H135m-.11-.1h-4.32m-4.33,0h4.33m3.65-40.14h8.51m.78,1H133.44m-.1-.78h10.29M143,101V93.65m.63-.78-.89-.26m.89.26V93m-.11.68V93m.11,0h-.11m-10.18-.1.89-.26m-.79.36h-.1m0,0v-.1m.1.78V93m.53,8.09V93.65m8.09,39.1a.11.11,0,0,0-.1.1h0m.1-.1a.11.11,0,0,0-.1.1h0m8.86,0a.11.11,0,0,0-.1-.1h0m.1.1a.11.11,0,0,0-.1-.1h0m-8.76.1h8.86m-.1-.1h-4.33m-4.33,0h4.33M150,92.61h8.51m.79,1H149.26m-.11-.78h10.29m-.63,8.11V93.65m.63-.78-.89-.26m.89.26V93m-.1.68V93m.1,0h-.1m-10.19-.1.89-.26m-.78.36h-.11m0,0v-.1m.11.78V93m.52,8V93.65m8.1,39.1a.11.11,0,0,0-.11.1h0m.11-.1a.11.11,0,0,0-.11.1h0m8.86,0a.1.1,0,0,0-.1-.1h0m.1.1a.1.1,0,0,0-.1-.1h0m-8.76.1h8.86m-.1-.1H162.2m-4.32,0h4.32m3.65-40.14h8.52m.78,1H165.07m-.1-.78h10.28m-.62,8.09V93.65m.62-.78-.88-.26m.88.26V93m-.1.68V93m.1,0h-.1M165,92.87l.88-.26m-.78.36H165m0,0v-.1m.1.78V93m.52,8V93.65m8.1,39.1a.1.1,0,0,0-.1.1h0m.1-.1a.1.1,0,0,0-.1.1h0m8.86,0a.11.11,0,0,0-.11-.1h0m.11.1a.11.11,0,0,0-.11-.1h0m-8.75.1h8.86m-.11-.1H178m-4.33,0H178m3.65-40.14h8.51m.78,1H180.88m-.1-.78h10.29m-.63,8.18v-7.4m.63-.78-.89-.26m.89.26V93m-.11.68V93m.11,0H191m-10.18-.1.89-.26m-.79.36h-.1m0,0v-.1m.1.78V93m.53,8V93.65m8.09,39.1a.11.11,0,0,0-.1.1h0m.1-.1a.11.11,0,0,0-.1.1h0m8.86,0a.1.1,0,0,0-.1-.1h0m.1.1a.1.1,0,0,0-.1-.1h0m-8.76.1h8.86m-.1-.1h-4.33m-4.33,0h4.33m3.65-40.14H206m.79,1H196.7m-.11-.78h10.29m-.62,8.18v-7.4m.62-.78-.89-.26m.89.26V93m-.1.68V93m.1,0h-.1m-10.19-.1.89-.26m-.78.36h-.11m0,0v-.1m.11.78V93m.52,8V93.65m8.1,39.1a.11.11,0,0,0-.11.1h0m.11-.1a.11.11,0,0,0-.11.1h0m8.87,0a.11.11,0,0,0-.11-.1h0m.11.1a.11.11,0,0,0-.11-.1h0m-8.76.1h8.87m-.11-.1h-4.33m-4.32,0h4.32m3.65-40.14h8.52m.78,1H212.51m-.1-.78h10.28m-.62,8.14V93.65m.62-.78-.88-.26m.88.26V93m-.1.68V93m.1,0h-.1m-10.18-.1.88-.26m-.78.36h-.1m0,0v-.1m.1.78V93m.52,8.08v-7.4m8.1,39.1a.1.1,0,0,0-.1.1h0m.1-.1a.1.1,0,0,0-.1.1h0m8.86,0a.11.11,0,0,0-.1-.1h0m.1.1a.11.11,0,0,0-.1-.1h0m-8.76.1h8.86m-.11-.1h-4.32m-4.33,0h4.33m3.65-40.14h8.51m.78,1H228.33m-.11-.78h10.29m-.63,8.19V93.65m.63-.78-.89-.26m.89.26V93m-.11.68V93m.11,0h-.11m-10.18-.1.89-.26m-.78.36h-.11m0,0v-.1m.11.78V93m.52,8V93.65m8.09,39.1a.11.11,0,0,0-.1.1h0m.1-.1a.11.11,0,0,0-.1.1h0m8.86,0a.1.1,0,0,0-.1-.1h0m.1.1a.1.1,0,0,0-.1-.1h0m-8.76.1h8.86m-.1-.1h-4.33m-4.33,0h4.33m3.65-40.14h8.52m.78,1H244.14m-.11-.78h10.29M253.7,101V93.65m.62-.78-.88-.26m.88.26V93m-.1.68V93m.1,0h-.1M244,92.87l.89-.26m-.78.36H244m0,0v-.1m.11.78V93m.52,8.08v-7.4m8.1,39.1a.11.11,0,0,0-.11.1h0m.11-.1a.11.11,0,0,0-.11.1h0m0,0h2.58m-2.47-.1h2.47"/><path class="cls-9" d="M15.83,132.85H8.44m11.49,0h1.81m4.1,0h8.59"/><path class="cls-4" d="M38.53,132.85h1.8m4.11,0H53M44.51,92.61H34.7m10.69.15H33.82m0,.11h.1m-.1-.11v.11m.1-.11.78-.15m-.78,1v-.78m11.37-.11-.78-.15m.88.15v.11m-.1.78v-.78m0,0h.1m17.71-.26H53.3M64,92.76H52.41m0,.11h.11m-.11-.11v.11m.11-.11.78-.15m-.78,1v-.78m11.36-.11-.78-.15m.89.15v.11m-.11.78v-.78m0,0H64M16.15,147H20m552.08-14.25h4.33m4.43.1H572m-119.77-19H636.25m-56.74,21h-6.26m-61.48-15.41h80.42M576.38,66.59h-5.13m5.13,12.2H560.57m0-7.3h15.81m-15.81,45.88h15.81m-15.81-2.61h15.81m-15.81,23.93h15.81M497.31,73.32H636.47"/><path class="cls-10" d="M681,92.61h9.81M679.43,137.4h13.38M680.16,92.76h11.57m-.1.89H680.26m-44.57,25.77h63.67M667.52,72.27h24.73m-11.52,45.1h4.52m-17.73,21.32H698.3M667.52,69.93h30.26m.31,8.86H667.52m0,35h31.21m-56.8-53.28h51.19m-.31,53.18V78.79M698,113.72V78.79m.78,35.14v-.11m-7.33,8.76v-3.16m-.35,13.43h7.42m-7.31-.1h7m-6.81-10.17h1.34m0,14.82v-2.57m0-3.12h.52m-.52,0v-9.13m.52,9.13v1m-.52,2.08h5.63"/><path class="cls-4" d="M691.23,132.75a.11.11,0,0,0-.11.1h0m.11-.1a.11.11,0,0,0-.11.1h0m-5.8-.1a.1.1,0,0,0-.1.1h0m.1-.1a.1.1,0,0,0-.1.1h0m1.8,0a.1.1,0,0,0-.1-.1h0m.1.1a.1.1,0,0,0-.1-.1h0m.1.1h-1.8m.1-.1h1.6m.07-15.38h5.56m5.77,3.13h0m-2.17-1.08h-1m-1.58,0h-1m-7.33-2H687m5.26-45.1h6.33m-6.85,20.6h-.1m.1-.11v.11"/><path class="cls-11" d="M691.63,92.76l-.78-.15m.78,1v-.78m1.49-32.33h4.69m-4.69,6.78h4.67m0-6.78v9.38m-4.69-9.38v9.38m-.14-9.38h.14"/><path class="cls-4" d="M636,92.61h-8.51M637,78.79H623.82m0-7.3h9.88m-9.88,47.93h11.87m-11.87-4.66h12.95M626.69,93.65h10.08m.1-.78H626.58m-2.76,45.82h15.81m-15.81,0h12.7m-12.7-21.32h12.95m-.26,20H627m35.47-4.65H654m8.48.1h-8.58m13.58-60.58H642.8m12.82,62.56h5.21m6.69,3.86h-31m19.36-78.15h4.69m-4.69,6.78h4.69m6.95,2.61H637.29M637,78.79h30.56m0,35H636.25m24.58-.1V78.79m18.6,34.93V78.79m-5.21,34.93V78.79m6.89,54.06a.1.1,0,0,0-.1-.1h0m.1.1a.1.1,0,0,0-.1-.1h0m-8.38,0a.11.11,0,0,0-.1.1h0m.1-.1a.11.11,0,0,0-.1.1h0m-11.7,4.55h13.39m-1.31-20h-4.52m12.38,5.21v-3.16m-7.89,3.16v-3.16m-.25,13.33H681m.1.1h-8.58m6.9,2h-5.21m5.21,0v2.57m0-5.69h-.52m.52,0v-9.13m-.52,9.13v1m.52-10.17h1.34m-6.55,14.82v-2.57m0-3.12h.52m-.52,0v-9.13m.52,9.13v1m-1.86-10.17h1.34m5.47-5.21h1m-6.78,0h-1m-10.74,5.21v-3.16m4.56,13.33a.11.11,0,0,0-.11.1h0m.11-.1a.11.11,0,0,0-.11.1h0m1.81,0a.11.11,0,0,0-.11-.1h0m.11.1a.11.11,0,0,0-.11-.1h0m-5.8.1a.11.11,0,0,0-.1-.1h0m.1.1a.11.11,0,0,0-.1-.1h0m6,.1h-1.81m.11-.1h1.59m-7.49,2.08v2.57m0-5.69h-.52m0,0v1m.52-1v-9.13m0,0h1.34m0-5.21h4.52m0,0h.86m.87,0h-.87m-6.42,0h1m-.58-24.61h11.58m-10.69-.15h9.8m.78,1H661.67"/><path class="cls-12" d="M680.26,92.76l.78-.15m-.88.15v.11m.1.78v-.78m0,0h-.1m-7.13.78v-.78m0-.11-.78-.15m.89.15v.11m0,0H673m6.14-32.33h-4.69m4.69,6.78h-4.69m4.69-6.78V70m.14-9.42h-.14m-4.69,0V70"/><path class="cls-4" d="M661.67,92.87h-.11m.11.78v-.78m-.11-.11v.11m.11-.11.78-.15m-1.88-32.07v9.39M637,113.72V78.79m18.59,34.93V78.79m-13.38,34.93V78.79m-6,22.2V93.65m7.57,39.1H636.7m7.23.1H635.2m20.42,4.55H642.24m0-14.82h1.34m4.48-5.21H642.5m11.78,5.21v-3.16m-10.7,3.16v-3.16M654,132.75a.1.1,0,0,0-.1.1h0m.1-.1a.1.1,0,0,0-.1.1h0m.34-10.27h1.34m0,12.25v2.57m.52-5.69v1m-.52-1v-9.13m0,9.13h.52m-12.21,1.14a.11.11,0,0,0-.11-.1h0m.11.1a.11.11,0,0,0-.11-.1h0m4.31,0a.1.1,0,0,0-.1.1h0m.1-.1a.1.1,0,0,0-.1.1h0m1.8,0a.1.1,0,0,0-.1-.1h0m.1.1a.1.1,0,0,0-.1-.1h0m.1.1H648m.1-.1h1.6m4.59-15.38H649.8m5.56,0h-1m-19,15.38a.11.11,0,0,0-.11.1h0m.11-.1a.11.11,0,0,0-.11.1h0m14.6-15.48h-1.74m-12.86,2v3.16m-.26,14.82h1.83m-1.46-4.65h1.46m-.26-10.17H635.2m7,14.82v-2.57m-.52-3.12v1m.52-1v-9.13m-5.73,9.13h.26m5.47,0h-.52m.52,3.12h-5.73m0-3.12v-9.13m.26,15.38v-3.13m-.26,0v2.57m-.58-18h-.78m-4.2,0H629.9m3.65,0h-1m2.69-4.66v2.61m7.87-24.61.79-.15m-.89.15h11.57m-.1.89H643.07m.79-1h9.8m.78,1v-.78m0-.11-.78-.15m.88.15v.11m0,0h-.1m1.44-32.33v9.39m-.14-9.39h.14"/><path class="cls-4" d="M637,78.79v2.88m-.16,11.2-.89-.26m7.09.26H643m.1.78v-.78m-.1-.11v.11m-6.2.1h.1m0,0v-.1m-.1.78V93m.52-26.38h-2.78m7.73,11.68h.24m-.55-11h-4.65m4.7-6.78v9.25m.5,8.48h-.24m.24.26v-.26m.32-6h-6.33m5.65-11.73H642"/><path class="cls-4" d="M605.24,92.87H595m.1.78h10.08m-.78-1h-8.52m-3.65,26.81H608m0-40.63H592.19m0-7.3H608m-6.09,47.93h-1m-8.69-2H608m-15.82-2.61H608m-15.82,23.93H608m-3.13-1.29h-9.56m9.3-36.33V93.65M620.43,101V93.65m-9,7.42V93.65m15.81,7.43V93.65m1,39.2a.11.11,0,0,0-.1-.1h0m.1.1a.11.11,0,0,0-.1-.1h0m-8.66,0a.11.11,0,0,0-.1.1h0m.1-.1a.11.11,0,0,0-.1.1h0m-6.95,0a.11.11,0,0,0-.11-.1h0m.11.1a.11.11,0,0,0-.11-.1h0m-8.65,0a.1.1,0,0,0-.1.1h0m.1-.1a.1.1,0,0,0-.1.1h0M608,119.42h15.81m-15.81-2h15.81M608,114.76h15.81M608,138.69h15.81m-3.13-1.29h-9.56m8.26-18v3.16m8.86-3.16v3.16m-7.56,12.25H627m1.3-2h-8.86m.1-.1h4.33m3.13-1h-.52m.52-9.13v9.13m1.2,1h-4.33m2.61-1v1m.52,4.65v-2.57m1.3-12.25H627m-6.26,9.13h.52m0,0v1m-.52-1v-9.13m0,12.25v2.57m0-14.82h-1.3m3.63-3.16h-1m1,0h-1m3.68,0h-1m3.68,0h-1m1-4.66v2.61m-10.51,2h-1m3.68,0h-1m0-4.66v2.61m-6.95,2v3.16m-8.86-3.16v3.16m8.75,10.17H608m4.43.1h-8.86m7.55,2h-6.25m6.25-3.12h-.52m0,0v1m.52-10.17v9.13m0,5.69v-2.57m1.31-12.25h-1.31m-7.45,10.17H608m-3.13-1h.52m0,0v1m-.52-1v-9.13m0,12.25v2.57m0-14.82h-1.3m6.27-3.16h-1m3.68,0h-1m3.68,0h-1m-1.65-4.66v2.61m-5.23,2h-1.05m-1.59,0h-1.05m3.69,0h-1.05m-2.58-4.66v2.61m17.48-24.5H610.77m.1.78H621m-.78-1h-8.51m-15,40.24a.1.1,0,0,0-.1-.1h0m.1.1a.1.1,0,0,0-.1-.1h0m27.3-54H608m0-7.3h15.81m-2.61,7.3v2.88m5.22-2.88v2.88m.15,11.2.89-.26m-.89.26V93m.11.68V93m-.11,0h.11m-5.74.68V93m.11,0v-.1M621,93h.11m0-.1-.89-.26m3.65-26h-5.13m5.13,0H629m0,0v4.9m-2.52,7.3V73.32m-7.74-6.73v4.9m2.52,7.3V73.32M605.4,78.79v2.88m5.21-2.88v2.88m.16,11.3h.1m0,.68V93m-.1-.1V93m0-.1.89-.26m-6.52,1V93m.1,0v-.1m-.1.1h.1m0-.1-.88-.26m3.65-26h5.12m0,0v4.9m-2.52,7.3V73.32M608,66.59h-5.13m0,0v4.9m2.52,7.3V73.32m-16.6,27.73v-7.4m-9,7.37V93.65m15.81,7.57V93.65m-7.71,39.1h4.32m4.43.1h-8.86m1-13.43h-1m-11.33-2h15.81m-15.81-2.61h15.81m-15.81,23.93h15.81m-3.12-16.11h-1.31m1.31,14.82h-9.56m17.11-18v3.16m-.1,10.17h-4.33m3.13,2.08h-6.25m6.25-3.12h-.52m.52-9.13v9.13m0,5.69v-2.57m1.3-12.25h-1.3m-6.25,9.13h.52m0,0v1m-.52-1v-9.13m0,12.25v2.57m5.73-5.69v1m1.88-13.33h-1m3.69,0h-1m-1.66-4.66v2.61m-2.58,2h-1m-1.6,0h-1m1,0h-1m-9.54,0v3.16m7-3.16v3.16m.11,10.17a.11.11,0,0,0-.11.1h0m.11-.1a.11.11,0,0,0-.11.1h0m-7,0a.11.11,0,0,0-.1-.1h0m.1.1a.11.11,0,0,0-.1-.1h0m0,0h-4.33m3.13-1H579m0,0v1m.52-10.17v9.13m0,5.69v-2.57m1.3-12.25h-1.3m4-3.16h-1m3.65,0h-1m2.69-4.66v2.61m-9.54,2h-1m3.68,0h-1m1-4.66v2.61m-5.23,2h-1m14.89-26.55H579.14m.11.78h10.08m-.79-1H580m12.16-26h-5.12m5.12,12.2H576.38m0-7.3h15.81m2.61,7.3v2.88m-5.21-2.88v2.88M595,93h.1m-.1-.1.88-.26m-.78,1V93m-5.73.68V93m.1,0v-.1m-.1.1h.1m0-.1-.89-.26m6.42.26V93m-2.77-26.38h5.13m0,0v4.9m-7.73,7.3V73.32m5.21,5.47V73.32M579,78.79v2.88m.15,11.3h.11m0,.68V93m-.11-.1V93m0-.1.89-.26m-3.65-26h5.13m5.56,0v4.9m-5.56-4.9v4.9M579,78.79V73.32M461.36,132.75h4.32m4.44.1h-8.87m7.56,2h-6.25m53.22-15.41H452.11M452,138.69h13.71m-13.95-21.32h13.95m-13.95-2.61h13.95m0-48.17h-5.12m-9.3,4.9h14.42m-14.35,1.83h14.35m0,5.47H451.54m74.64,14.08H515.89m.1.78h10.08m-.78-1h-8.52m12.17-13.82H513.13m0-7.3h15.81m-15.81,45.88h15.81m-15.81-2.61h15.81m-15.81,23.93h15.81m-3.13-1.29h-9.56m32.83-4.65h-4.33m4.43.1h-8.86m7.56,2h-6.26m3.13-68.24h5.13m10.69,12.2H544.75m0-7.3h15.82m-15.82,45.88h15.82m-15.82-2.61h15.82m-15.82,23.93h15.82M557.18,101V93.65m-9,7.39V93.65M573,101.11V93.65m-9,7.42V93.65m-7.71,39.1h4.33m4.43.1h-8.87m7.56,2h-6.25M565,119.42v3.16m7-3.16v3.16m.1,10.17a.11.11,0,0,0-.1.1h0m.1-.1a.11.11,0,0,0-.1.1h0m-7,0a.11.11,0,0,0-.11-.1h0m.11.1a.11.11,0,0,0-.11-.1h0m8.36,4.65h-9.56m9.56-5.69h.52m0,0v1m-.52-1v-9.13m0,12.25v2.57m0-14.82H572m-7.06,10.17h-4.32m3.12-1h-.52m0,0v1m.52-10.17v9.13m0,5.69v-2.57M565,122.58h-1.31m8.26-7.82v2.61m-7-2.61v2.61m-15.82,2v3.16m7-3.16v3.16m.11,10.17a.1.1,0,0,0-.1.1h0m.1-.1a.1.1,0,0,0-.1.1h0m-7,0a.1.1,0,0,0-.1-.1h0m.1.1a.1.1,0,0,0-.1-.1h0m8.36,4.65h-9.56m9.56-5.69H558m0,0v1m-.52-1v-9.13m0,12.25v2.57m0-14.82h-1.31m-8.25,9.13h-.52m0,0v1m.52-10.17v9.13m0,5.69v-2.57m1.3-12.25h-1.3m8.25-7.82v2.61m-7-2.61v2.61m11.39-50.78h-5.13m18.33,12.2v2.88m-10.6-2.88v2.88m10.45,11.2H563.33m.1.78h10.08m-.78-1h-8.51m9.29,1V93m.11,0v-.1m-.11.1h.11m0-.1-.89-.26m-9.4.36h.1m0,.68V93m-.1-.1V93m0-.1.89-.26m7-26v4.9m2.52,7.3V73.32m-13.2-6.73h5.12m0,0v4.9m-2.52,7.3V73.32M558,78.79v2.88m-10.6-2.88v2.88m10.44,11.2H547.52m.1.78H557.7m-.78-1H548.4m9.3,1V93m.1,0v-.1m-.1.1h.1m0-.1-.88-.26m-9.4.36h.1m0,.68V93m-.1-.1V93m0-.1.88-.26m7-26v4.9m2.52,7.3V73.32m-8.08-6.73v4.9m-2.52,7.3V73.32M525.55,101V93.65m15.81,7.45V93.65m-9,7.42V93.65m.94,39.1h-4.33m4.43.1h-8.86m4.43-15.48h15.81m-15.81-2.61h15.81m-15.81,23.93h15.81m-11.38-16.11h-1.3m9.55,14.82h-9.55m1.3-18v3.16m7-3.16v3.16m.11,10.17a.11.11,0,0,0-.11.1h0m.11-.1a.11.11,0,0,0-.11.1h0m-7,0a.11.11,0,0,0-.1-.1h0m.1.1a.11.11,0,0,0-.1-.1h0m7.16,0h4.32m-3.13-1h.53m0,0v1m-.53-1v-9.13m0,12.25v2.57m0-14.82h-1.3m-15.71,10.17a.1.1,0,0,0-.1.1h0m.1-.1a.1.1,0,0,0-.1.1h0m15.81-18.09v2.61m-7-2.61v2.61m-8.86,2v3.16m.1,10.17h4.33m3.13,2.08h-6.26m0-3.12h.52m5.74,0h-.52m0,0v1m.52-10.17v9.13m0,5.69v-2.57m-5.74-3.12v1m-.52-1v-9.13m0,12.25v2.57m0-14.82h-1.3m0-7.82v2.61M542,92.87H531.7m.11.78h10.07m-.78-1h-8.51m-3.65-26h5.13m10.68,12.2H528.94m0-7.3h15.81m-2.6,7.3v2.88m-.27,12V93m.11,0v-.1m-.11.1H542m0-.1-.89-.26m3.65-26h-5.12m2.52,12.2V73.32m-8.08-6.73v4.9m5.56-4.9v4.9m-8.08,7.3v2.88m-5.22-2.88v2.88m-.15,11.2-.89-.26m.78,1V93m.11,0v-.1m-.11.1h.11m5.52,0h.11m0,.68V93m-.11-.1V93m0-.1.89-.26m-3.65-26h-5.13m7.74,12.2V73.32m-5.22,5.47V73.32m-2.52-6.73v4.9M494.55,92.87H484.26m.11.78h10.07m-.78-1h-8.51m12.16-13.82H481.5m0-5.47h15.81M481.5,71.49h15.81M481.5,117.37h15.81m-15.81-2.61h15.81M481.5,138.69h15.81m-3.13-1.29h-9.55m9.29-36.33V93.65m15.82,7.48V93.65m-9,7.48V93.65m15.81,7.42V93.65m1,39.2a.11.11,0,0,0-.11-.1h0m.11.1a.11.11,0,0,0-.11-.1h0m-8.65,0a.11.11,0,0,0-.11.1h0m.11-.1a.11.11,0,0,0-.11.1h0m-6.95,0a.1.1,0,0,0-.1-.1h0m.1.1a.1.1,0,0,0-.1-.1h0m-8.66,0a.11.11,0,0,0-.1.1h0m.1-.1a.11.11,0,0,0-.1.1h0m4.43-15.48h15.82m-15.82-2.61h15.82m-15.82,23.93h15.82M510,137.4h-9.56m17.12-18v3.16m-8.87-3.16v3.16m.11,10.17h4.33m4.43.1h-8.87m7.56,2H510m7.45-2.08h-4.32m3.12-1h-.52m0,0v1m.52-10.17v9.13m0,5.69v-2.57m1.31-12.25h-1.31M510,131.71h.52m0,0v1m-.52-1v-9.13m0,12.25v2.57m0-14.82h-1.31m8.87-7.82v2.61m-8.87-2.61v2.61m-6.95,2v3.16m-8.86-3.16v3.16m8.76,10.17h-4.33m4.43.1h-8.86m7.56,2h-6.26m6.26-3.12h-.52m0,0v1m.52-10.17v9.13m0,5.69v-2.57m1.3-12.25h-1.3M493,132.75h4.33m-3.13-1h.53m0,0v1m-.53-1v-9.13m0,12.25v2.57m0-14.82h-1.3m8.86-7.82v2.61m-8.86-2.61v2.61m17.48-24.5H500.07m.11.78h10.08m-.78-1H501m-15,40.24a.11.11,0,0,0-.1-.1h0m.1.1a.11.11,0,0,0-.1-.1h0m27.3-54H497.31m0-7.3h15.82m2.6,7.3v2.88m-5.21-2.88v2.88M515.89,93h.1m0,.68V93m-.1-.1V93m0-.1.88-.26m-6.51,1V93m.1,0v-.1m-.1.1h.1m0-.1-.88-.26m3.65-26H508m5.13,0h5.12m0,0v4.9m-2.52,7.3V73.32M508,66.59v4.9m2.52,7.3V73.32m-10.6,5.47v2.88m-5.21-2.88v2.88M500.07,93h.11m0,.68V93m-.11-.1V93m0-.1.89-.26m-6.52,1V93m.11,0v-.1m-.11.1h.11m0-.1-.89-.26m3.65-26h5.13m0,0v4.9m-2.52,7.3V73.32m-2.61-6.73h-5.12m0,0v4.9m2.52,7.3V73.33m-16.6,27.89V93.65m-9,7.43V93.65m15.82,7.46V93.65m-7.72,39.1h4.33m4.43.1h-8.86m-11.39-15.48H481.5m-15.82-2.61H481.5m-15.82,23.93H481.5m-3.13-16.11h-1.3m1.3,14.82h-9.56m17.12-18v3.16m-.1,10.17H481.5m3.13,2.08h-6.26m6.26-3.12h-.52m.52-9.13v9.13m0,5.69v-2.57m1.3-12.25h-1.3m-.52,9.13v1m-5.74-1h.52m0,0v1m-.52-1v-9.13m0,12.25v2.57m7.56-22.64v2.61m-15.81,2v3.16m6.95-3.16v3.16m.1,10.17a.1.1,0,0,0-.1.1h0m.1-.1a.1.1,0,0,0-.1.1h0m-6.95,0a.11.11,0,0,0-.11-.1h0m.11.1a.11.11,0,0,0-.11-.1h0m0,0h-4.33m3.13-1h-.52m0,0v1m.52-10.17v9.13m0,5.69v-2.57m1.31-12.25h-1.31m8.26-7.82v2.61m-6.95-2.61v2.61m8.62-24.5H468.45m.1.78h10.08m-.78-1h-8.52m12.17-26h-5.13m5.13,12.2H465.68m0-5.47H481.5m-15.82-1.83H481.5m2.61,7.3v2.88m-5.22-2.88v2.88m5.37,11.2.89-.26m-6.52,1V93m.11,0v-.1m-.11.1h.11m0-.1-.89-.26m6.41.36h.11m0,.68V93m-.11-.1V93M481.5,66.59h5.12m0,0v4.9m-2.51,7.3V73.33m-5.22,5.46V73.33m-10.6,5.46v2.88m.16,11.3h.1m0,.68V93m-.1-.1V93m0-.1.88-.26m-3.65-26h5.13m5.56,0v4.9m-5.56-4.9v4.9m-2.52,7.3V73.33m-6,27.89V93.65m-1.05,25.77v3.16m.11,10.17a.11.11,0,0,0-.11.1h0m.11-.1a.11.11,0,0,0-.11.1h0m1.31,4.55H453m9.56-5.69h.52m-.52,0v-9.13m.52,9.13v1m-.52,2.08v2.57m0-14.82h-1.31m0-7.82v2.61m1.83-38.58v2.88m-.16,11.2H452.63m.11.78h10.08m-.78-1h-8.52m9.3,1V93m.1,0v-.1m-.1.1h.1m0-.1-.88-.26m1-13.82V73.33m-8.78,59.52a.1.1,0,0,0-.1-.1h0m.1.1a.1.1,0,0,0-.1-.1h0m6.36-66.16v4.9m-9.46-4.9H455m0,0v4.9m-2.52,7.3v2.88m.78,19.4V93.65m-.63-.68h.11m0,.68V93m-.11-.1V93m0-.1.89-.26m.78,22.15v2.61m-1.3,5.21v9.13m1.3-12.29v3.16m0,0H453m1.3,10.27h-2.57m2.47-.1h-2.47m1.27-1h-.52m.52,3.12h-1.27m.75-3.12v1m.52,4.65v-2.57m-130.12,5.56v-8.28m14.6,0v8.28m-31.62,0h1.6m2.89,0h13m73.2,0H383.55m32.72,0H404m-2.89,0h-1.59M326.57,55.82v.23"/><line class="cls-13" x1="64.99" y1="67.34" x2="69.68" y2="67.34"/><line class="cls-14" x1="634.54" y1="66.59" x2="634.54" y2="70.16"/><path class="cls-9" d="M691.58,81.59a4.69,4.69,0,0,0-2.53-.76,4.57,4.57,0,0,0-2.52.75l.42,1.89a3.72,3.72,0,0,1,2.1-.67,3.64,3.64,0,0,1,2.11.68l.42-1.89Zm-627.75,0a4.69,4.69,0,0,0-2.53-.76,4.57,4.57,0,0,0-2.52.75l.42,1.89a3.72,3.72,0,0,1,2.1-.67,3.64,3.64,0,0,1,2.11.68l.42-1.89Zm609.16,0a4.6,4.6,0,0,0-5,0l.43,1.89a3.72,3.72,0,0,1,2.1-.67,3.66,3.66,0,0,1,2.11.68l.41-1.89Zm-627.75,0a4.6,4.6,0,0,0-5.05,0l.43,1.89a3.72,3.72,0,0,1,2.1-.67,3.66,3.66,0,0,1,2.11.68l.41-1.89Zm609.17,0a4.6,4.6,0,0,0-5,0l.42,1.89a3.75,3.75,0,0,1,2.11-.67,3.61,3.61,0,0,1,2.1.68l.42-1.89Zm-627.77,0a4.69,4.69,0,0,0-2.53-.76,4.57,4.57,0,0,0-2.52.75L22,83.47a3.72,3.72,0,0,1,2.1-.67,3.66,3.66,0,0,1,2.11.68l.42-1.89Zm658.71,0a4.6,4.6,0,0,0-5.05,0l.43,1.89a3.72,3.72,0,0,1,2.1-.67,3.66,3.66,0,0,1,2.11.68l.41-1.89Zm-627.75,0a4.6,4.6,0,0,0-5.05,0L53,83.47a3.72,3.72,0,0,1,2.1-.67,3.66,3.66,0,0,1,2.11.68l.41-1.89Zm609.17,0a4.6,4.6,0,0,0-5,0l.42,1.89a3.75,3.75,0,0,1,2.11-.67,3.61,3.61,0,0,1,2.1.68l.42-1.89ZM39,81.59a4.6,4.6,0,0,0-5.05,0l.42,1.89a3.75,3.75,0,0,1,2.11-.67,3.61,3.61,0,0,1,2.1.68L39,81.59Zm609.17,0a4.69,4.69,0,0,0-2.53-.76,4.57,4.57,0,0,0-2.52.75l.42,1.89a3.72,3.72,0,0,1,2.1-.67,3.66,3.66,0,0,1,2.11.68l.42-1.89Zm-627.78,0a4.6,4.6,0,0,0-5.05,0l.43,1.89a3.72,3.72,0,0,1,2.1-.67,3.66,3.66,0,0,1,2.11.68l.41-1.89Zm671.2,20.06a4.61,4.61,0,0,0-5.07,0l.43,1.38a3.63,3.63,0,0,1,4.23,0l.41-1.38Zm-628.12,0a4.59,4.59,0,0,0-5.06,0l.42,1.38a3.64,3.64,0,0,1,4.24,0l.4-1.38Zm609.52,0a4.61,4.61,0,0,0-5.07,0l.43,1.38a3.63,3.63,0,0,1,4.23,0l.41-1.38Zm-628.12,0a4.59,4.59,0,0,0-5.06,0l.42,1.38a3.64,3.64,0,0,1,4.24,0l.4-1.38Zm609.52,0a4.61,4.61,0,0,0-5.07,0l.43,1.38a3.63,3.63,0,0,1,4.23,0l.41-1.38Zm-628.14,0a4.61,4.61,0,0,0-5.07,0l.43,1.38a3.63,3.63,0,0,1,4.23,0l.41-1.38Zm659.41,0a4.59,4.59,0,0,0-5.06,0l.42,1.38a3.64,3.64,0,0,1,4.24,0l.4-1.38Zm-628.11,0A4.71,4.71,0,0,0,55,100.9a4.65,4.65,0,0,0-2.53.77l.42,1.38a3.66,3.66,0,0,1,2.13-.69,3.62,3.62,0,0,1,2.1.67l.41-1.38Zm609.53,0a4.71,4.71,0,0,0-2.53-.75,4.65,4.65,0,0,0-2.53.77l.42,1.38a3.66,3.66,0,0,1,2.13-.69,3.62,3.62,0,0,1,2.1.67l.41-1.38ZM39,101.65a4.61,4.61,0,0,0-5.07,0l.43,1.38a3.63,3.63,0,0,1,4.23,0l.41-1.38Zm609.53,0a4.61,4.61,0,0,0-5.07,0l.43,1.38a3.63,3.63,0,0,1,4.23,0l.41-1.38Zm-628.14,0a4.71,4.71,0,0,0-2.53-.75,4.62,4.62,0,0,0-2.53.77l.42,1.38A3.63,3.63,0,0,1,20,103l.41-1.38ZM637,81.64a9.9,9.9,0,0,0-10.62,0l1.07,1.85a7.52,7.52,0,0,1,8.5,0c.12-.2,1.06-1.74,1-1.85Zm-15.8,0a9.83,9.83,0,0,0-10.63,0l1.06,1.85a7.54,7.54,0,0,1,8.51,0l1.06-1.84Zm-15.81,0a9.85,9.85,0,0,0-10.64,0l1.07,1.85a7.54,7.54,0,0,1,8.51,0l1.06-1.84Zm-15.81,0a9.85,9.85,0,0,0-10.64,0L580,83.5a7.54,7.54,0,0,1,8.51,0l1.06-1.84Zm-15.82,0a9.83,9.83,0,0,0-10.63,0l1.07,1.85a7.53,7.53,0,0,1,8.5,0l1.06-1.84Zm-15.81,0a9.83,9.83,0,0,0-10.63,0l1.06,1.85a7.57,7.57,0,0,1,4.27-1.32,7.47,7.47,0,0,1,4.24,1.31L558,81.65Zm-15.81,0a9.85,9.85,0,0,0-10.64,0l1.07,1.85a7.54,7.54,0,0,1,8.51,0l1.06-1.84Zm-15.81,0a9.85,9.85,0,0,0-10.64,0l1.07,1.85a7.54,7.54,0,0,1,8.51,0l1.06-1.84Zm-15.81,0a10.11,10.11,0,0,0-5.29-1.56,10,10,0,0,0-5.35,1.56L501,83.5a7.54,7.54,0,0,1,8.51,0l1.06-1.84Zm-15.82,0a9.83,9.83,0,0,0-10.63,0l1.06,1.85a7.57,7.57,0,0,1,4.27-1.32,7.47,7.47,0,0,1,4.24,1.31l1.06-1.84Zm-15.81,0a9.85,9.85,0,0,0-10.64,0l1.07,1.85a7.54,7.54,0,0,1,8.51,0l1.06-1.84Zm-15.81,0a9.85,9.85,0,0,0-10.64,0l1.07,1.85a7.54,7.54,0,0,1,8.51,0l1.06-1.84Zm-208.59,0a9.83,9.83,0,0,0-10.63,0l1.06,1.85a7.56,7.56,0,0,1,4.26-1.32,7.47,7.47,0,0,1,4.25,1.31l1.06-1.84Zm-15.82,0a10.11,10.11,0,0,0-5.29-1.56,10,10,0,0,0-5.35,1.56l1.07,1.85a7.54,7.54,0,0,1,8.51,0l1.06-1.84Zm-15.83,0a9.85,9.85,0,0,0-10.64,0l1.07,1.85a7.54,7.54,0,0,1,8.51,0l1.06-1.84Zm-15.78,0a9.85,9.85,0,0,0-10.64,0l1.07,1.85a7.54,7.54,0,0,1,8.51,0l1.06-1.84Zm-15.83,0a9.83,9.83,0,0,0-10.63,0l1.06,1.85A7.57,7.57,0,0,1,186,82.18a7.47,7.47,0,0,1,4.24,1.31l1.06-1.84Zm-15.82,0a10.09,10.09,0,0,0-5.29-1.56,10,10,0,0,0-5.35,1.56l1.07,1.85a7.54,7.54,0,0,1,8.51,0l1.06-1.84Zm-15.83,0a9.85,9.85,0,0,0-10.64,0L150,83.5a7.54,7.54,0,0,1,8.51,0l1.06-1.84Zm-15.78,0a9.85,9.85,0,0,0-10.64,0l1.07,1.85a7.54,7.54,0,0,1,8.51,0l1.06-1.84Zm-15.83,0a9.83,9.83,0,0,0-10.63,0l1.06,1.85a7.57,7.57,0,0,1,4.27-1.32,7.47,7.47,0,0,1,4.24,1.31L128,81.65Zm-15.82,0a9.85,9.85,0,0,0-10.64,0l1.07,1.85a7.54,7.54,0,0,1,8.51,0l1.06-1.84Zm-15.83,0a9.85,9.85,0,0,0-10.64,0l1.07,1.85a7.54,7.54,0,0,1,8.51,0l1.06-1.84Zm-15.78,0a9.91,9.91,0,0,0-10.47-.1,4.93,4.93,0,0,0,.9,2,7.54,7.54,0,0,1,8.51,0l1.06-1.84Zm555.68,19.57a8.48,8.48,0,0,0-9,0l1,1.82a6.39,6.39,0,0,1,7,0l1-1.81Zm-15.81,0a8.48,8.48,0,0,0-9,0l1,1.82a6.39,6.39,0,0,1,7,0l1-1.81Zm-15.81,0a8.5,8.5,0,0,0-9,0l1,1.82a6.38,6.38,0,0,1,7,0l1-1.81Zm-15.81,0a8.5,8.5,0,0,0-9,0l1,1.82a6.38,6.38,0,0,1,7,0l1-1.81Zm-15.82,0a8.48,8.48,0,0,0-9,0l1,1.82a6.39,6.39,0,0,1,7,0l1-1.81Zm-15.81,0a8.48,8.48,0,0,0-9,0l1,1.82a6.39,6.39,0,0,1,7,0l1-1.81Zm-15.81,0a8.48,8.48,0,0,0-9,0l1,1.82a6.34,6.34,0,0,1,3.47-1,6.41,6.41,0,0,1,3.49,1l1-1.81Zm-15.81,0a8.5,8.5,0,0,0-9,0l1,1.82a6.38,6.38,0,0,1,7,0l1-1.81Zm-15.82,0a8.48,8.48,0,0,0-9,0l1,1.82a6.39,6.39,0,0,1,7,0l1-1.81Zm-15.81,0a8.48,8.48,0,0,0-9,0l1,1.82a6.39,6.39,0,0,1,7,0l1-1.81Zm-15.81,0a8.48,8.48,0,0,0-9,0l1,1.82a6.34,6.34,0,0,1,3.47-1,6.41,6.41,0,0,1,3.49,1l1-1.81Zm-15.81,0a8.5,8.5,0,0,0-9.05,0l1.05,1.82a6.38,6.38,0,0,1,6.95,0l1.05-1.81Zm-208.59,0a8.48,8.48,0,0,0-9,0l1,1.82a6.39,6.39,0,0,1,7,0l1-1.81Zm-15.82,0a8.5,8.5,0,0,0-9.05,0L229.9,103a6.38,6.38,0,0,1,6.95,0l1.05-1.81Zm-15.83,0a8.48,8.48,0,0,0-9,0l1,1.82a6.34,6.34,0,0,1,3.47-1,6.41,6.41,0,0,1,3.49,1l1-1.81Zm-15.78,0a8.5,8.5,0,0,0-9,0l1,1.82a6.38,6.38,0,0,1,7,0l1-1.81Zm-15.83,0a8.48,8.48,0,0,0-9,0l1,1.82a6.39,6.39,0,0,1,7,0l1-1.81Zm-15.82,0a8.5,8.5,0,0,0-9,0l1,1.82a6.38,6.38,0,0,1,7,0l1-1.81Zm-15.83,0a8.48,8.48,0,0,0-9,0l1,1.82a6.34,6.34,0,0,1,3.47-1,6.41,6.41,0,0,1,3.49,1l1-1.81Zm-15.78,0a8.5,8.5,0,0,0-9.05,0L135,103a6.38,6.38,0,0,1,6.95,0l1.05-1.81Zm-15.83,0a8.48,8.48,0,0,0-9,0l1,1.82a6.39,6.39,0,0,1,7,0l1-1.81Zm-15.82,0a8.5,8.5,0,0,0-9,0l1,1.82a6.38,6.38,0,0,1,7,0l1-1.81Zm-15.83,0a8.48,8.48,0,0,0-9,0l1,1.82a6.39,6.39,0,0,1,7,0l1-1.81Zm-15.78,0a8.5,8.5,0,0,0-9,0l1,1.82a6.38,6.38,0,0,1,7,0l1-1.81Z"/><line class="cls-15" x1="8.43" y1="132.86" x2="255.24" y2="132.86"/><line class="cls-9" x1="451.72" y1="132.85" x2="698.51" y2="132.85"/><path class="cls-16" d="M9.06,60.54V59.17H8.27V57.82l1.36-.39V53.52L10,53.3a6.62,6.62,0,0,1,1.56-3.11,6.61,6.61,0,0,1,1.55,3.13l.35.2v3.91l1.54.44v1.3H14v1.37Z"/><path class="cls-10" d="M697.9,60.54V59.17h.79V57.82l-1.36-.39V53.52L697,53.3a6.67,6.67,0,0,0-1.55-3.11,6.66,6.66,0,0,0-1.56,3.13l-.35.2v3.91l-1.53.44v1.3h.95v1.37Z"/><path class="cls-16" d="M27.63,60.54V59.17h-.79V57.82l1.36-.39V53.52l.36-.22a6.57,6.57,0,0,1,1.55-3.11,6.66,6.66,0,0,1,1.56,3.13l.34.2v3.91l1.54.44v1.3h-1v1.37Z"/><path class="cls-17" d="M679.33,60.54V59.17h.79V57.82l-1.36-.39V53.52l-.37-.22a6.57,6.57,0,0,0-1.55-3.11,6.66,6.66,0,0,0-1.56,3.13l-.34.2v3.91l-1.54.44v1.3h1v1.37Z"/><path class="cls-16" d="M46.23,60.54V59.17h-.79V57.82l1.36-.39V53.52l.36-.22a6.62,6.62,0,0,1,1.56-3.11,6.61,6.61,0,0,1,1.55,3.13l.35.2v3.91l1.53.44v1.3h-1v1.37Z"/><path class="cls-11" d="M660.73,60.54V59.12h.79v-1.3l-1.36-.39V53.52l-.36-.22a6.57,6.57,0,0,0-1.55-3.11,6.66,6.66,0,0,0-1.56,3.13l-.35.2v3.91l-1.53.44v1.25h1v1.42Z"/><path class="cls-16" d="M64.84,60.54V59.17h-.79V57.82l1.36-.39V53.52l.37-.22a6.47,6.47,0,0,1,1.55-3.11,6.66,6.66,0,0,1,1.56,3.13l.34.2v3.91l1.54.44v1.3h-1v1.37Z"/><path class="cls-18" d="M642.12,60.54V59.17h.79V57.82l-1.36-.39V53.52l-.36-.22a6.62,6.62,0,0,0-1.56-3.11,6.66,6.66,0,0,0-1.56,3.13l-.34.2v3.91l-1.54.44v1.3h1v1.37Z"/><polyline class="cls-19" points="9.2 69.93 5.62 70.24 5.62 71.67 8.38 71.67 8.38 74.1 8.94 74.1 8.94 78.27 8.69 78.27 8.69 78.79 14.39 78.79 14.39 78.27 14.14 78.27 14.14 74.1 14.7 74.1 14.7 72.28"/><polyline class="cls-16" points="697.76 69.93 701.35 70.24 701.35 71.67 698.58 71.67 698.58 74.1 698.03 74.1 698.03 78.27 698.27 78.27 698.27 78.79 692.57 78.79 692.57 78.27 692.82 78.27 692.82 74.1 692.26 74.1 692.26 72.28"/><polyline class="cls-19" points="64.17 72.28 64.17 74.1 64.73 74.1 64.73 78.27 64.49 78.27 64.49 78.79 70.19 78.79 70.19 78.27 69.94 78.27 69.94 74.1 70.5 74.1 70.5 71.67 73.26 71.67 73.26 70.24 69.68 69.93 69.68 60.54"/><polyline class="cls-16" points="642.79 72.28 642.79 74.1 642.23 74.1 642.23 78.27 642.48 78.27 642.48 78.79 636.78 78.79 636.78 78.27 637.02 78.27 637.02 74.1 636.46 74.1 636.46 71.67 633.7 71.67 633.7 70.24 637.28 69.93 637.28 60.55"/><polyline class="cls-19" points="26.97 72.28 26.97 74.1 27.53 74.1 27.53 78.27 27.28 78.27 27.28 78.79 32.98 78.79 32.98 78.27 32.74 78.27 32.74 74.1 33.3 74.1 33.3 72.28"/><polyline class="cls-16" points="679.99 72.28 679.99 74.1 679.43 74.1 679.43 78.27 679.68 78.27 679.68 78.79 673.98 78.79 673.98 78.27 674.22 78.27 674.22 74.1 673.67 74.1 673.67 72.28"/><polyline class="cls-19" points="45.56 72.29 45.56 74.11 46.12 74.11 46.12 78.28 45.87 78.28 45.87 78.81 51.57 78.81 51.57 78.28 51.33 78.28 51.33 74.11 51.89 74.11 51.89 72.29"/><polyline class="cls-20" points="661.4 72.29 661.4 74.11 660.84 74.11 660.84 78.28 661.09 78.28 661.09 78.81 655.39 78.81 655.39 78.28 655.63 78.28 655.63 74.11 655.08 74.11 655.08 72.29"/><line class="cls-21" x1="46.8" y1="55.52" x2="50.62" y2="55.52"/><line class="cls-21" x1="660.16" y1="55.52" x2="656.34" y2="55.52"/><line class="cls-21" x1="65.41" y1="55.52" x2="69.23" y2="55.52"/><line class="cls-11" x1="641.55" y1="55.52" x2="637.73" y2="55.52"/><line class="cls-21" x1="28.2" y1="55.52" x2="32.02" y2="55.52"/><line class="cls-11" x1="678.76" y1="55.52" x2="674.94" y2="55.52"/><line class="cls-21" x1="9.68" y1="55.52" x2="13.5" y2="55.52"/><line class="cls-21" x1="697.28" y1="55.52" x2="693.46" y2="55.52"/><polyline class="cls-16" points="8.15 113.83 8.15 114.76 8.68 114.76 8.68 117.47 7 117.88 7 119.43 7.95 119.43 7.95 120.53 8.68 120.53 8.68 132.76 8.42 132.76 8.42 134.84 8.67 134.84 8.67 138.7 7.42 139.2 7.42 147.53 7.1 147.84 7.1 149.95"/><path class="cls-16" d="M698.81,113.82v.94h-.53v2.71l1.68.41v1.55h-1v1.1h-.73v12.23h.26v2.08h-.24v3.86l1.24.5v8.33l.33.31V150M70.71,113.82v.94h-.53v2.71l1.69.41v1.55h-1v1.1h-.73v12.23h.26v2.08H70.2v3.86l1.24.5v8.33l.33.31V150"/><path class="cls-16" d="M636.25,113.82v.94h.53v2.71l-1.68.41v1.55h.95v1.1h.73v12.23h-.26v2.08h.24v3.86l-1.24.5v8.33l-.33.31V150M14.93,113.82v.94h-.52v2.71H8.68"/><polyline class="cls-16" points="692.03 113.83 692.03 114.76 692.56 114.76 692.56 117.47 698.28 117.47"/><polyline class="cls-16" points="33.52 113.83 33.52 114.76 33 114.76 33 117.47 27.26 117.47 27.26 114.76 26.75 114.76 26.75 113.82"/><polyline class="cls-16" points="673.44 113.83 673.44 114.76 673.96 114.76 673.96 117.47 679.7 117.47 679.7 114.76 680.22 114.76 680.22 113.82"/><polyline class="cls-16" points="52.12 113.83 52.12 114.76 51.6 114.76 51.6 117.47 45.86 117.47 45.86 114.76 45.34 114.76 45.34 113.82"/><path class="cls-16" d="M654.84,113.82v.94h.52v2.71h5.74v-2.71h.52v-.94m-597.69,0v.94h.53v2.71h5.72"/><polyline class="cls-16" points="643.03 113.83 643.03 114.76 642.5 114.76 642.5 117.47 636.78 117.47"/><path class="cls-19" d="M72.45,66.59a1.86,1.86,0,0,0,1.74-1.08,1.19,1.19,0,0,1,.27-.42,1.08,1.08,0,0,1,1.54,0,.94.94,0,0,1,.2.29A2,2,0,0,0,78,66.59"/><path class="cls-16" d="M634.54,66.59a1.93,1.93,0,0,1-1.77-1.08,1.3,1.3,0,0,0-.26-.42,1.09,1.09,0,0,0-1.55,0,1.16,1.16,0,0,0-.2.29A2,2,0,0,1,629,66.59"/><path class="cls-19" d="M88.26,66.59a2,2,0,0,0,1.8-1.08,1,1,0,0,1,.26-.42,1.08,1.08,0,0,1,1.54,0,1.26,1.26,0,0,1,.21.29,1.9,1.9,0,0,0,1.75,1.24"/><path class="cls-16" d="M618.69,66.59a2,2,0,0,1-1.79-1.08,1,1,0,0,0-.26-.42,1.08,1.08,0,0,0-1.54,0,1.26,1.26,0,0,0-.21.29,1.9,1.9,0,0,1-1.76,1.24"/><path class="cls-19" d="M104.08,66.59a1.87,1.87,0,0,0,1.74-1.08,1,1,0,0,1,.26-.42,1.09,1.09,0,0,1,1.55,0,1.52,1.52,0,0,1,.2.29,2,2,0,0,0,1.81,1.24"/><path class="cls-16" d="M602.88,66.59a1.87,1.87,0,0,1-1.74-1.08,1,1,0,0,0-.26-.42,1.09,1.09,0,0,0-1.55,0,1.52,1.52,0,0,0-.2.29,2,2,0,0,1-1.81,1.24"/><path class="cls-16" d="M119.89,66.59a1.91,1.91,0,0,0,1.76-1.08,1,1,0,0,1,.26-.42,1.09,1.09,0,0,1,1.55,0,1.52,1.52,0,0,1,.2.29,1.94,1.94,0,0,0,1.79,1.24"/><path class="cls-16" d="M587.07,66.59a1.89,1.89,0,0,1-1.76-1.08,1,1,0,0,0-.26-.42,1.09,1.09,0,0,0-1.55,0,1.52,1.52,0,0,0-.2.29,2,2,0,0,1-1.79,1.24"/><path class="cls-16" d="M135.7,66.59a1.85,1.85,0,0,0,1.74-1.08,1.19,1.19,0,0,1,.27-.42,1.08,1.08,0,0,1,1.54,0,.94.94,0,0,1,.2.29,2,2,0,0,0,1.81,1.24"/><path class="cls-16" d="M571.25,66.59a1.84,1.84,0,0,1-1.73-1.08,1.19,1.19,0,0,0-.27-.42,1.08,1.08,0,0,0-1.54,0,.94.94,0,0,0-.2.29,2,2,0,0,1-1.82,1.24"/><path class="cls-16" d="M151.52,66.59a2,2,0,0,0,1.79-1.08,1,1,0,0,1,.26-.42,1.09,1.09,0,0,1,1.55,0,1.52,1.52,0,0,1,.2.29,1.9,1.9,0,0,0,1.76,1.24"/><path class="cls-16" d="M555.44,66.59a2,2,0,0,1-1.79-1.08,1,1,0,0,0-.26-.42,1.09,1.09,0,0,0-1.55,0,1.52,1.52,0,0,0-.2.29,1.91,1.91,0,0,1-1.76,1.24"/><path class="cls-16" d="M167.33,66.59a1.94,1.94,0,0,0,1.78-1.08,1,1,0,0,1,.26-.42,1.08,1.08,0,0,1,1.54,0,.94.94,0,0,1,.2.29,2,2,0,0,0,1.78,1.24"/><path class="cls-16" d="M539.63,66.59a1.9,1.9,0,0,1-1.77-1.08,1.19,1.19,0,0,0-.27-.42,1.08,1.08,0,0,0-1.54,0,.94.94,0,0,0-.2.29,2,2,0,0,1-1.78,1.24"/><path class="cls-16" d="M183.14,66.59a1.88,1.88,0,0,0,1.76-1.08,1.3,1.3,0,0,1,.26-.42,1.09,1.09,0,0,1,1.55,0,1.16,1.16,0,0,1,.2.29,2,2,0,0,0,1.79,1.24"/><path class="cls-16" d="M523.81,66.59a1.89,1.89,0,0,1-1.75-1.08,1.15,1.15,0,0,0-.26-.42,1.09,1.09,0,0,0-1.55,0,1.16,1.16,0,0,0-.2.29,2,2,0,0,1-1.8,1.24"/><path class="cls-16" d="M199,66.59a1.91,1.91,0,0,0,1.77-1.08,1.3,1.3,0,0,1,.26-.42,1.09,1.09,0,0,1,1.55,0,1.16,1.16,0,0,1,.2.29,1.94,1.94,0,0,0,1.78,1.24"/><path class="cls-16" d="M508,66.59a1.92,1.92,0,0,1-1.77-1.08,1.15,1.15,0,0,0-.26-.42,1.09,1.09,0,0,0-1.55,0,1.16,1.16,0,0,0-.2.29,2,2,0,0,1-1.78,1.24"/><path class="cls-16" d="M214.77,66.59a2,2,0,0,0,1.79-1.08,1.3,1.3,0,0,1,.26-.42,1.09,1.09,0,0,1,1.55,0,1.16,1.16,0,0,1,.2.29,1.92,1.92,0,0,0,1.76,1.24"/><path class="cls-16" d="M492.19,66.59a2,2,0,0,1-1.79-1.08,1.15,1.15,0,0,0-.26-.42,1.09,1.09,0,0,0-1.55,0,1.16,1.16,0,0,0-.2.29,1.93,1.93,0,0,1-1.77,1.24"/><path class="cls-16" d="M230.58,66.59a1.93,1.93,0,0,0,1.78-1.08,1,1,0,0,1,.26-.42,1.09,1.09,0,0,1,1.55,0,1.52,1.52,0,0,1,.2.29,1.93,1.93,0,0,0,1.77,1.24"/><path class="cls-16" d="M476.37,66.59a1.92,1.92,0,0,1-1.77-1.08,1,1,0,0,0-.26-.42,1.08,1.08,0,0,0-1.54,0,1.26,1.26,0,0,0-.21.29,1.93,1.93,0,0,1-1.78,1.24"/><path class="cls-16" d="M246.4,66.59a2,2,0,0,0,1.79-1.08,1,1,0,0,1,.26-.42,1.09,1.09,0,0,1,1.55,0,1.52,1.52,0,0,1,.2.29A1.9,1.9,0,0,0,252,66.59"/><path class="cls-16" d="M460.56,66.59a2,2,0,0,1-1.79-1.08,1,1,0,0,0-.26-.42,1.08,1.08,0,0,0-1.54,0,1.26,1.26,0,0,0-.21.29A1.91,1.91,0,0,1,455,66.59"/><path class="cls-16" d="M262.82,61.74V59.29h-.33V57.77h-.56V51.05h.31V49.32l-1.7-3.27a1,1,0,0,0,.29-.92,3.22,3.22,0,0,0-1.49-2.59,3.37,3.37,0,0,0-1.49,2.58c0,.45,0,.7.32.93l-1.8,3.27v1.73h.39v6.71h-.54v1.56h-.35v2.42l-3.68.89v1.62h2.49v2.06h1.19v3.53l-.69.4.49.59v7.63l-.27.14V79h.29v34.23l-.92.61v.68h.44v3l-1.67.4v.81h.6v.72h1.08V138L255,138v.64l-1,.95v7.92l-.33.4v2"/><path class="cls-16" d="M444.15,61.74V59.29h.33V57.77H445V51.05h-.31V49.32l1.7-3.27a1,1,0,0,1-.28-.92,3.19,3.19,0,0,1,1.49-2.59,3.39,3.39,0,0,1,1.48,2.58c0,.45,0,.7-.32.93l1.81,3.27v1.73h-.39v6.71h.54v1.56h.35v2.42l3.67.89v1.62h-2.48v2.06h-1.2v3.53l.7.4-.5.59v7.63l.27.14V79h-.28v34.23l.91.61v.68h-.44v3l1.68.4v.81h-.6v.72h-1.08V138l.24.09v.64l1,.95v7.92l.33.4v2M281.83,61.74V59.29h.33V57.77h.56V51.05h-.31V49.32l1.7-3.27a1,1,0,0,1-.28-.92,3.18,3.18,0,0,1,1.48-2.59,3.37,3.37,0,0,1,1.49,2.58c0,.45,0,.7-.32.93l1.8,3.27v1.73h-.39v6.71h.55v1.56h.34v2.42l3.68.89v1.62H290v2.06h-1.19v3.53l.69.4-.49.59v7.63l.27.14V79H289v34.23l.91.61v.68h-.44v3l1.67.4v.81h-.6v.72h-1.07V138l.24.09v.64l1,.95v7.92l.33.4v2"/><path class="cls-16" d="M425.13,61.74V59.29h-.33V57.77h-.55V51.05h.31V49.32l-1.7-3.27a1,1,0,0,0,.28-.92,3.19,3.19,0,0,0-1.49-2.59,3.39,3.39,0,0,0-1.48,2.58c0,.45,0,.7.32.93l-1.81,3.27v1.73h.39v6.71h-.54v1.56h-.34v2.42l-3.68.89v1.62H417v2.06h1.19v3.53l-.7.4.5.59v7.63l-.27.14V79H418v34.23l-.91.61v.68h.44v3l-1.68.4v.81h.61v.72h1.07V138l-.24.09v.64l-1,.95v7.92l-.33.4v2M262,134.42h20.71v.6H262v-.6Zm162.3,0H445V135H424.28v-.58ZM293.74,56.05l-.15,3.2m23.46-3.2-.15,3.2m23.41-3.2-.15,3.2m23.46-3.2-.14,3.2m23.45-3.2-.14,3.2m23.43-3.2-.14,3.2m-113.35-3.2.15,3.2m23.17-3.2.14,3.2m23.12-3.2.14,3.2m23.17-3.2.14,3.2m23.17-3.2.14,3.2m23.15-3.2.15,3.2m-120,0V61.9h3.83V59.25m19.48,0V61.9h3.83V59.25m19.43,0V61.9h3.83V59.25m19.48,0V61.9H367V59.25m19.48,0V61.9h3.83V59.25m19.47,0V61.9h3.83V59.25"/><polygon class="cls-16" points="16.17 147 19.98 147 19.98 148.13 16.17 148.13 16.17 147 16.17 147"/><polygon class="cls-22" points="690.82 147 687.01 147 687.01 148.17 690.82 148.17 690.82 147 690.82 147"/><polygon class="cls-16" points="34.74 147 38.54 147 38.54 148.13 34.74 148.13 34.74 147 34.74 147"/><polygon class="cls-22" points="672.2 147 668.4 147 668.4 148.17 672.2 148.17 672.2 147 672.2 147"/><polygon class="cls-16" points="53.36 147 57.16 147 57.16 148.13 53.36 148.13 53.36 147 53.36 147"/><polygon class="cls-22" points="653.63 147 649.83 147 649.83 148.17 653.63 148.17 653.63 147 653.63 147"/><polygon class="cls-23" points="21.76 147 25.89 147 25.89 148.13 21.76 148.13 21.76 147 21.76 147"/><polygon class="cls-24" points="685.23 147 681.1 147 681.1 148.16 685.23 148.16 685.23 147 685.23 147"/><polygon class="cls-23" points="40.32 147 44.45 147 44.45 148.13 40.32 148.13 40.32 147 40.32 147"/><polygon class="cls-24" points="666.66 147 662.54 147 662.54 148.16 666.66 148.16 666.66 147 666.66 147"/><polygon class="cls-23" points="58.94 147 63.07 147 63.07 148.13 58.94 148.13 58.94 147 58.94 147"/><polygon class="cls-24" points="648.05 147 643.92 147 643.92 148.16 648.05 148.16 648.05 147 648.05 147"/><path class="cls-16" d="M315.05,150v-4.44h.53v-.62h5.91v.61H322V150m16.34,0v-4.44h.52v-.62h5.91v.61h.53V150m16.33,0v-4.44h.52v-.62h5.92v.62h.52V150m16.33,0v-4.44h.53v-.62h5.91v.61h.52V150"/><line class="cls-16" x1="368.62" y1="145.51" x2="385.1" y2="145.51"/><line class="cls-22" x1="345.32" y1="145.51" x2="361.77" y2="145.51"/><line class="cls-16" x1="322.02" y1="145.51" x2="338.55" y2="145.51"/><path class="cls-25" d="M442.14,93.89h-7.51m0-.71h7.51m0,0h-7.51M432.29,123H437m-2.35,17.9H437m-2.36,0H437m0-38.15h-2.35m0,11.75h17.54m-17.54-.59h17.56M434.63,70.81h13.68m2.78-9.06H418.17m16.46,2.5h17.81m-1,2.06H434.63m0,7h16.7m-16.7,5.11h16.65m-16.65,39.45H453.4M434.63,138H451.8m-7.32-79h-9.85m0,55.58H417.56m17.07-.59H417.08m17.55,24H417.55M424.8,123h4.69m0,0v11.36m-2.37,6.54h2.37M424.8,123v11.36m2.32,6.54h-2.36m7.53-17.9v11.36m2.34,6.54h-2.36m2.36,0h-2.36m-2.64-27V102.77m0,0v11.16m0-11.16h-2.35m2.19,0h-2.35m-2.19,11.16V102.77m0,0h2.35m-2.35,0v11.16m7.36-11.16h2.34m-2.34,11.16V102.77m0,0v11.16m2.34-49.68H417m8.14-5h-7m16.46,11.56H421m-3.13-4.5h16.8m0,7h-16.7m16.7,5.11H418m-4.37-16.69h4.54m-6.45-2.5h6.45"/></g></g></svg>