<svg xmlns="http://www.w3.org/2000/svg" viewBox="0 0 277.43 256.89"><defs><style>.cls-1,.cls-2{fill:#173c65;}.cls-1{fill-rule:evenodd;}</style></defs><title>Eszköz 2</title><g id="Réteg_2" data-name="Réteg 2"><g id="Réteg_1" data-name="Réteg 1"><polygon class="cls-1" points="82.53 140.7 100.49 131.06 99.47 0 51.25 2.26 49.2 150.55 77.5 150.85 82.53 140.7"/><polygon class="cls-1" points="66.82 172.37 73.37 159.17 42.77 158.88 45.06 11.18 44.31 11.2 29.95 11.73 26.69 162.92 3.17 188.19 1.24 239.38 62.86 239.29 66.82 172.37"/><polygon class="cls-1" points="121.52 119.78 119.92 8.82 106.69 8.9 105.76 8.93 106.8 127.68 121.52 119.78"/><path class="cls-1" d="M75.73,174.6l-4,64.12,116.31.38.73-35.36,5.26.3V185.87l6.76-7.51,6.26,7.26-.23,19.16,5,.29.74,34.1,64.88.21-1.75-64.78-44.91-26.3L129.83,126.51l-39.4,20Zm190.68,11.77,4.76,6.76v17.28l-8.77.5-.25-18Zm-18.28-2.5,5,7,.5,18.53-10.52.25-.25-18.53Zm-21.54-1.75,4.76,7.76-.5,19h-9.77l-.5-20Zm-59.11.75,6.26-7.26,5.76,7,.25,22.79-13-.25Zm-31.31-4,7.51-8,6.26,8.27-.5,24-13.77-.5Zm-31.31-3.51,7.51-9,7.51,9.77-.5,25.3-15.28-.5Z"/><rect class="cls-2" y="247.91" width="277.43" height="8.99"/></g></g></svg>