<svg xmlns="http://www.w3.org/2000/svg" viewBox="0 0 344.75 346.41"><defs><style>.cls-1{fill:#002b5c;}</style></defs><title>Eszköz 1</title><g id="Réteg_2" data-name="Réteg 2"><g id="Réteg_2-2" data-name="Réteg 2"><path class="cls-1" d="M170.44,97.47c4.39-6.71,8.64-12.91,12.56-18.27A95.45,95.45,0,0,0,117.31,253c2.18-6.56,4.44-12.81,6.72-18.71A76.35,76.35,0,0,1,170.44,97.47Z"/><path class="cls-1" d="M170.65,250.19A76.75,76.75,0,0,1,157.38,249c-4.53,6.94-8.23,12.86-10.87,17.18A95.44,95.44,0,0,0,239.2,107.44c-4.79,4.66-9.26,9.21-13.43,13.57a76.34,76.34,0,0,1-55.13,129.17Z"/><path class="cls-1" d="M212.89,169.76s-8.53-5.69-26-11c0,0,32.09-43.87,81.24-83.67,0,0-44-10.15-66.61-10.15-11.78,8.94-49.55,67.43-67,106.42,0,0,14.62,6.91,19.09,11.37a411,411,0,0,0-34.93,82l-12.59-8.94,8.53,43.46,39.2-24-16-4.06S174.1,208.55,212.89,169.76Z"/><path class="cls-1" d="M131.31,318.67a7.11,7.11,0,0,0-3.85,5.07,5.86,5.86,0,0,0,.71,4.52,7.38,7.38,0,0,0,4,3.06l0,.07a7.66,7.66,0,0,0-4.13,1.36,5.45,5.45,0,0,0-2.26,3.35,5.25,5.25,0,0,0,1.31,5,12.1,12.1,0,0,0,6.31,3.12l9.45,2.17,5.95-25.95-10-2.28A11,11,0,0,0,131.31,318.67Zm6.61,22.09-2.19-.5q-4.27-1-3.62-3.84a3.07,3.07,0,0,1,1.59-2.18,4.39,4.39,0,0,1,3-.22l2.57.59Zm2.4-10.49-3.2-.74a5.13,5.13,0,0,1-3-1.61,3,3,0,0,1-.57-2.7,3.22,3.22,0,0,1,1.74-2.3,5,5,0,0,1,3.39-.21l3.17.73Z"/><path class="cls-1" d="M121,313.09l-6.11,13.39q-1.23,2.7-2.64,6.39l-.15-.07a34.51,34.51,0,0,0,.78-3.72l1.65-18.93-4.46-2L96.9,322a28,28,0,0,0-2.22,2.86l-.14-.06Q96,322,97.11,319.7l6.61-14.49-5.39-2.46L87.29,327l7.79,3.55,11.48-12.07a38.32,38.32,0,0,0,2.56-3.06l.1,0a22.24,22.24,0,0,0-.72,3.86l-1.6,16.61,8,3.64,11-24.22Z"/><polygon class="cls-1" points="81.36 290.42 78.56 294.4 86.7 300.14 83.19 305.12 76.08 300.1 73.28 304.07 80.39 309.09 76.98 313.93 69.33 308.54 66.52 312.53 79.06 321.38 94.41 299.63 81.36 290.42"/><path class="cls-1" d="M34,279.73l4.11,4.74,17.56-7.91a15.24,15.24,0,0,0,2.44-1.35l.07.08a13.37,13.37,0,0,0-1.65,2.14L46.2,293.76l4.23,4.88,14.19-24.28-4.45-5.14Z"/><polygon class="cls-1" points="35.01 272.41 49.39 262.73 50.63 264.58 54.48 261.99 48.65 253.32 44.8 255.91 46.04 257.75 31.66 267.43 30.41 265.58 26.56 268.18 32.4 276.85 36.25 274.26 35.01 272.41"/><polygon class="cls-1" points="39.57 236.77 35.28 239.06 39.92 247.75 20.71 257.99 23.54 263.28 47.03 250.76 39.57 236.77"/><path class="cls-1" d="M33,219.53l-.26.1-1.29-6-6.18-.6-2-9.26,5.4-3.09-1.36-6.39L3.29,209.07l1.49,7,27.42,3.83-3.71,1.41,3.5,9.22-20.34,7.72,2.13,5.61,24.89-9.44Zm-21.93-7.78a10.2,10.2,0,0,0-2.37,0l0-.15a11.65,11.65,0,0,0,2.25-.94L19.1,206l1.42,6.66Z"/><path class="cls-1" d="M27,186.93l-14.72.24q-3,0-6.9.35v-.17a34.78,34.78,0,0,0,3.7-.89l17.81-6.64-.08-4.9L8.63,169a28.11,28.11,0,0,0-3.54-.78v-.15q3.12.17,5.7.13l15.93-.26-.1-5.92L0,162.43.14,171,16,176.17a38.55,38.55,0,0,0,3.86,1v.11a22.29,22.29,0,0,0-3.79,1L.35,184l.14,8.78,26.62-.43Z"/><path class="cls-1" d="M14.63,156.33a13.36,13.36,0,0,0,10.23-1.52,12.39,12.39,0,0,0,5.57-8.35,12.52,12.52,0,0,0-1.79-10.1,14.09,14.09,0,0,0-9.15-5.66A13.76,13.76,0,0,0,9.14,132.1a12.09,12.09,0,0,0-5.55,8.25A12.66,12.66,0,0,0,5.4,150.64,14.32,14.32,0,0,0,14.63,156.33Zm-6-14.75a5.75,5.75,0,0,1,3.25-4.25,10.38,10.38,0,0,1,6.67-.39,9.58,9.58,0,0,1,5.7,3.06,6.41,6.41,0,0,1-2.08,9.56,9.68,9.68,0,0,1-6.5.52A9.86,9.86,0,0,1,9.88,147,6,6,0,0,1,8.6,141.58Z"/><path class="cls-1" d="M12.72,122.66a7.2,7.2,0,0,0,3,2.08,6.93,6.93,0,0,0,4.78.23,11.65,11.65,0,0,0,4.65-3.17q.91-1,1.75-1.77a12.82,12.82,0,0,1,1.6-1.34A4.81,4.81,0,0,1,30,118a2.31,2.31,0,0,1,1.46.09,2.15,2.15,0,0,1,.89.65,2.48,2.48,0,0,1,.49,1.1,4.63,4.63,0,0,1,0,1.52,8.44,8.44,0,0,1-.53,1.92,11.26,11.26,0,0,1-2,3.31,11.42,11.42,0,0,1-3.17,2.53l5.53,2.17A12.63,12.63,0,0,0,35,128.47a22.66,22.66,0,0,0,1.87-3.74,19.54,19.54,0,0,0,1.1-3.93,9.94,9.94,0,0,0,0-3.63,6.85,6.85,0,0,0-1.45-3A7.58,7.58,0,0,0,33.27,112a7.65,7.65,0,0,0-2.81-.58,6.61,6.61,0,0,0-2.52.51,10.22,10.22,0,0,0-2.38,1.41,23.19,23.19,0,0,0-2.37,2.15q-.88.91-1.64,1.61a10.7,10.7,0,0,1-1.44,1.13,4.06,4.06,0,0,1-1.3.57,2.1,2.1,0,0,1-1.24-.11,2,2,0,0,1-.91-.7,2.72,2.72,0,0,1-.46-1.14,4.74,4.74,0,0,1,0-1.51,8.16,8.16,0,0,1,.5-1.8,11.8,11.8,0,0,1,.68-1.42,12.45,12.45,0,0,1,.93-1.42,11.57,11.57,0,0,1,1.14-1.3,8.88,8.88,0,0,1,1.29-1.06l-5.17-2a14.42,14.42,0,0,0-1.8,2.48,24.13,24.13,0,0,0-1.58,3.34,17.17,17.17,0,0,0-1,3.9,10.23,10.23,0,0,0,.11,3.62A7.1,7.1,0,0,0,12.72,122.66Z"/><path class="cls-1" d="M44.07,107.07,31.62,99.2q-2.51-1.59-6-3.48l.09-.14a34.78,34.78,0,0,0,3.59,1.28l18.54,4.2,2.62-4.14L38.51,82A28,28,0,0,0,36,79.38l.08-.13q2.52,1.85,4.7,3.23L54.22,91l3.16-5L34.87,71.77,30.3,79,40.71,92A38.41,38.41,0,0,0,43.39,95l-.06.09a22.24,22.24,0,0,0-3.72-1.23L23.37,90l-4.69,7.42,22.51,14.22Z"/><polygon class="cls-1" points="45.32 56.67 44.87 48.33 41.33 52.16 42.44 59.77 45.32 56.67"/><polygon class="cls-1" points="60.88 82.67 71.73 70.96 68.17 67.66 61.39 74.96 56.92 70.82 62.85 64.44 59.28 61.13 53.36 67.52 49.02 63.49 55.38 56.63 51.8 53.31 41.36 64.57 60.88 82.67"/><path class="cls-1" d="M78.75,65,72.37,57l1.26-1a2.29,2.29,0,0,1,.95-.46,3.44,3.44,0,0,1,1.13,0,7.78,7.78,0,0,1,1.33.28q.72.21,1.57.53l7.52,2.75,5.37-4.31-8.85-3q-.69-.23-1.46-.44A13.54,13.54,0,0,0,79.66,51a8.22,8.22,0,0,0-1.45-.09,3.83,3.83,0,0,0-1.28.25l0-.06a9.74,9.74,0,0,0,1.24-2.38,7.69,7.69,0,0,0,.45-2.45,7.16,7.16,0,0,0-.39-2.41,7.51,7.51,0,0,0-1.28-2.27Q72.38,36,64.82,42l-7.41,6L74.08,68.73ZM71.56,51.88l-2,1.63L64.9,47.73,67,46q3.26-2.61,5.44.11a3.72,3.72,0,0,1,.83,2.93A4.31,4.31,0,0,1,71.56,51.88Z"/><path class="cls-1" d="M97.57,51.42l-7-12.86Q89.21,36,88.41,34.85l.07,0a24.26,24.26,0,0,0,2.23,1.3l17.62,9.47,5.32-2.89-12.7-23.4L96,22l7,12.94a28.43,28.43,0,0,0,1.87,3.14l-.06,0q-1.05-.65-2.21-1.27l-17-9.2L79.9,30.73l12.7,23.4Z"/><path class="cls-1" d="M118.94,37.2a12.39,12.39,0,0,0,10,.77,12.52,12.52,0,0,0,7.93-6.51,14.09,14.09,0,0,0,.46-10.75,13.76,13.76,0,0,0-6.3-8.34,12.08,12.08,0,0,0-9.91-.81A12.66,12.66,0,0,0,113,18.18,14.32,14.32,0,0,0,112.6,29,13.36,13.36,0,0,0,118.94,37.2Zm-.51-16.9a6,6,0,0,1,4.08-3.76,5.75,5.75,0,0,1,5.29.75,10.39,10.39,0,0,1,3.61,5.62,9.58,9.58,0,0,1,.12,6.47,6,6,0,0,1-4,3.6,6,6,0,0,1-5.33-.74,9.68,9.68,0,0,1-3.64-5.41A9.87,9.87,0,0,1,118.43,20.3Z"/><path class="cls-1" d="M114,10.92a2.93,2.93,0,0,0,2.19.08,3,3,0,0,0,1.75-1.29,2.35,2.35,0,0,0,.2-2,2.36,2.36,0,0,0-1.3-1.51,2.94,2.94,0,0,0-2.17-.07,3,3,0,0,0-1.74,1.29,2.32,2.32,0,0,0-.23,2A2.36,2.36,0,0,0,114,10.92Z"/><path class="cls-1" d="M122.09,8.39a2.91,2.91,0,0,0,2.16.08A3,3,0,0,0,126,7.17a2.34,2.34,0,0,0,.22-2,2.33,2.33,0,0,0-1.32-1.5A3.3,3.3,0,0,0,121,4.9a2.33,2.33,0,0,0-.21,2A2.35,2.35,0,0,0,122.09,8.39Z"/><path class="cls-1" d="M150.49,32.47l-1.66-12.93h.09a11,11,0,0,0,.89,1.36L159,31.38l6.93-.89V31l10.45-.17-.08-4.64-2.23,0-.28-17.34,2.23,0-.07-4.64-10.45.17L165.56,9l2.23,0,.28,17.34-2.23,0,.06,3.47L154.72,17.89l7.59-13.78L155.22,5,149.35,17q-.39,1-.55,1.57h-.09L147.1,6.07l-5.95.76,3.39,26.4Z"/><polygon class="cls-1" points="212.08 30.99 202.32 28.95 203.56 22.99 212.09 24.77 213.08 20.01 204.56 18.23 205.77 12.44 214.93 14.35 215.92 9.57 200.89 6.43 195.45 32.49 211.08 35.75 212.08 30.99"/><polygon class="cls-1" points="216.61 1.07 211.51 0 205.56 4.88 209.7 5.75 216.61 1.07"/><path class="cls-1" d="M213.63,35.42a12.61,12.61,0,0,0,2.85,2.2,22.55,22.55,0,0,0,3.8,1.76,19.54,19.54,0,0,0,4,1,9.93,9.93,0,0,0,3.63-.13,6.86,6.86,0,0,0,3-1.53,7.56,7.56,0,0,0,2.06-3.24,7.65,7.65,0,0,0,.5-2.83,6.62,6.62,0,0,0-.58-2.5,10.06,10.06,0,0,0-1.48-2.33,23.21,23.21,0,0,0-2.22-2.31q-.94-.85-1.66-1.59a10.41,10.41,0,0,1-1.17-1.41,4,4,0,0,1-.61-1.28,2.11,2.11,0,0,1,.07-1.25,2,2,0,0,1,.67-.93,2.71,2.71,0,0,1,1.12-.5,4.78,4.78,0,0,1,1.51,0,8.22,8.22,0,0,1,1.81.44,11.74,11.74,0,0,1,1.44.63,12.49,12.49,0,0,1,1.45.88,11.56,11.56,0,0,1,1.33,1.1,8.92,8.92,0,0,1,1.1,1.26l1.87-5.23a14.6,14.6,0,0,0-2.53-1.72,24.14,24.14,0,0,0-3.38-1.48,17.14,17.14,0,0,0-3.93-.92,10.2,10.2,0,0,0-3.62.21,7.08,7.08,0,0,0-3,1.55,7.2,7.2,0,0,0-2,3.08,6.93,6.93,0,0,0-.09,4.78,11.62,11.62,0,0,0,3.31,4.56q1,.89,1.82,1.7a12.88,12.88,0,0,1,1.38,1.56,4.76,4.76,0,0,1,.76,1.48,2.29,2.29,0,0,1,0,1.46,2.12,2.12,0,0,1-.62.91,2.47,2.47,0,0,1-1.08.52,4.64,4.64,0,0,1-1.52.06,8.45,8.45,0,0,1-1.93-.47,11.26,11.26,0,0,1-3.37-1.93,11.43,11.43,0,0,1-2.62-3.1Z"/><polygon class="cls-1" points="256.67 51.9 254.78 50.71 264 36.02 265.88 37.21 268.35 33.28 259.5 27.72 257.03 31.65 258.92 32.84 249.7 47.52 247.82 46.34 245.35 50.27 254.2 55.83 256.67 51.9"/><path class="cls-1" d="M261,60.69l9.39-11.22q1.86-2.22,2.65-3.4l.06,0a23.81,23.81,0,0,0-.39,2.55L270.4,68.54,275,72.43,292.13,52l-4.34-3.63-9.45,11.29a28.75,28.75,0,0,0-2.23,2.9l-.06,0q.22-1.22.37-2.52l2.3-19.21-5-4.15L256.68,57.06Z"/><polygon class="cls-1" points="282.1 80.63 289.92 73.86 295.57 80.39 299.25 77.21 293.6 70.68 298.54 66.41 304.69 73.51 308.38 70.32 298.31 58.68 278.18 76.09 282.1 80.63"/><path class="cls-1" d="M294.08,90.06a12.4,12.4,0,0,0,1.75,9.88,12.53,12.53,0,0,0,8.28,6.06,14.09,14.09,0,0,0,10.52-2.24,13.75,13.75,0,0,0,6.5-8.18,12.08,12.08,0,0,0-1.69-9.8A12.66,12.66,0,0,0,311,79.61a14.32,14.32,0,0,0-10.61,2.28A13.37,13.37,0,0,0,294.08,90.06Zm9.94-3a9.86,9.86,0,0,1,6.3-1.73,6,6,0,0,1,4.66,3,5.76,5.76,0,0,1,.59,5.31,10.39,10.39,0,0,1-4.54,4.9,9.58,9.58,0,0,1-6.24,1.73A6.41,6.41,0,0,1,299.69,92,9.69,9.69,0,0,1,304,87.08Z"/><path class="cls-1" d="M306.5,119.34l9.46-3.78.6,1.5a2.31,2.31,0,0,1,.17,1,3.44,3.44,0,0,1-.28,1.09,7.7,7.7,0,0,1-.65,1.19q-.41.62-1,1.34L310,128.11l2.56,6.39,5.44-7.59q.42-.59.84-1.27a13.82,13.82,0,0,0,.74-1.37,8.28,8.28,0,0,0,.51-1.36,3.89,3.89,0,0,0,.13-1.29l.07,0a9.73,9.73,0,0,0,1.91,1.88,7.67,7.67,0,0,0,2.22,1.14,7.15,7.15,0,0,0,2.42.33,7.52,7.52,0,0,0,2.55-.56q6.72-2.69,3.12-11.69L329,103.89l-24.72,9.88ZM327,111.12l1,2.52q1.55,3.88-1.69,5.17a3.71,3.71,0,0,1-3-.06,4.3,4.3,0,0,1-2.18-2.46l-1-2.41Z"/><path class="cls-1" d="M314,140.83l14.49-2.62q2.92-.53,6.75-1.46l0,.16a34.56,34.56,0,0,0-3.51,1.48l-16.5,9.43.87,4.82,18.92,2.92a28,28,0,0,0,3.62.2l0,.15q-3.11.34-5.65.79l-15.67,2.83,1.05,5.83,26.2-4.73-1.52-8.42-16.46-2.55a38,38,0,0,0-4-.36l0-.11a22.23,22.23,0,0,0,3.57-1.61l14.56-8.16-1.56-8.64-26.2,4.73Z"/><path class="cls-1" d="M318.38,167.12l-.17,6.49,5.87,2-.24,9.47-6,1.74-.17,6.53,26.86-8.78.18-7.11Zm21.52,13.72a11.63,11.63,0,0,0-2.41.38l-9,2.63.18-6.81,8.94,3.13a10.21,10.21,0,0,0,2.31.52Z"/><polygon class="cls-1" points="337.54 204.41 316.17 200.42 315.06 206.33 336.43 210.32 335.04 217.78 339.84 218.68 343.72 197.88 338.92 196.98 337.54 204.41"/><polygon class="cls-1" points="333.67 222.59 317.08 217.54 317.74 215.41 313.3 214.05 310.25 224.05 314.68 225.4 315.34 223.27 331.92 228.33 331.27 230.46 335.71 231.81 338.76 221.82 334.32 220.47 333.67 222.59"/><path class="cls-1" d="M307.06,232.28,319,237.55l0,.08a11.22,11.22,0,0,0-1.63.05l-13.71,2.42-2.79,6.32-3,4.61,3.91,4.83-5.22,7.9-6-1.68-3.6,5.45,27.43,6.77,3.92-5.93-16.08-21.68,15.21-3.25,7.86,13.62,2.89-6.54-7.18-11.21q-.67-.87-1.06-1.28l0-.08L331.41,243l2.42-5.48-24.35-10.76Zm3.68,34.58a10.11,10.11,0,0,0,1.68,1.67l-.08.12a11.78,11.78,0,0,0-2.24-.95l-9-2.54,3.75-5.69Z"/><polygon class="cls-1" points="301.63 283.33 288.47 272.04 289.93 270.35 286.4 267.32 279.6 275.25 283.12 278.28 284.57 276.58 297.72 287.88 296.27 289.57 299.8 292.59 306.6 284.66 303.08 281.64 301.63 283.33"/><path class="cls-1" d="M258.58,294l7.47,10.68-.08.05a11.12,11.12,0,0,0-1.42-.8l-13-5-5.85,4.1-5.16,2.43.83,6.15-8.56,4-4.24-4.55-5.91,2.79,19.92,20,6.43-3-2.5-27.22,15.08,5.22-.32,15.72,5.86-4.1-.34-13.31q-.13-1.09-.25-1.64l.08-.05,7.22,10.31,4.91-3.44-15.27-21.81ZM243.86,328a11.6,11.6,0,0,0-1.42-2l-6.4-6.87,6.16-2.91,1.23,9.4A10.24,10.24,0,0,0,244,328Z"/><path class="cls-1" d="M214.62,315.95l2.72,9.82-1.56.43a2.3,2.3,0,0,1-1.05.05,3.49,3.49,0,0,1-1.06-.4,7.84,7.84,0,0,1-1.11-.78c-.38-.32-.79-.69-1.23-1.1l-5.82-5.5-6.64,1.83,6.95,6.25q.54.49,1.16,1a13.29,13.29,0,0,0,1.28.89,8.07,8.07,0,0,0,1.3.65,3.77,3.77,0,0,0,1.27.28l0,.07a9.67,9.67,0,0,0-2.08,1.69,7.66,7.66,0,0,0-1.38,2.08,7.18,7.18,0,0,0-.6,2.37,7.57,7.57,0,0,0,.27,2.59q1.93,7,11.27,4.4l9.16-2.53-7.09-25.66ZM217.9,338q-4,1.11-5-2.25a3.72,3.72,0,0,1,.4-3,4.3,4.3,0,0,1,2.69-1.9l2.5-.69,2,7.14Z"/><circle class="cls-1" cx="174.15" cy="335.96" r="7.16"/></g></g></svg>