<svg xmlns="http://www.w3.org/2000/svg" viewBox="0 0 899.89 367.95"><defs><style>.cls-1{fill:#f8981d;}.cls-2{fill:#6a6a6a;}.cls-3{fill:#fff;}</style></defs><title>Legologo</title><g id="Réteg_2" data-name="Réteg 2"><g id="Réteg_1" data-name="Réteg 1"><rect class="cls-1" width="535" height="175.41"/><rect class="cls-2" x="535" y="175.41" width="364.89" height="192.55"/><path class="cls-3" d="M66.74,129.37h55.05v27.38H33.89V18.35H66.74Z"/><path class="cls-3" d="M237.28,44.71h-65.9V73.1h51.81V99.16H171.37v30.21h65.9v27.38H138.42V18.35h98.85Z"/><path class="cls-3" d="M364.52,82.73v74h-14.8a109,109,0,0,0-4.61-15.92q-14.81,18-37.74,18-27.08,0-42.15-19.37T250.15,89.42q0-33.05,16.07-53.13t43.65-20.08q23.12,0,37.31,13t17.34,34.57L333.7,67.83q-3.75-25.14-23.83-25.14-13.18,0-19.92,11.91t-6.74,34q0,21.29,7.3,32.55t20.78,11.25a23.7,23.7,0,0,0,15.56-5.68q6.84-5.68,6.84-18.15H307.64V82.73Z"/><path class="cls-3" d="M442,158.87q-28,0-43.26-21t-15.3-50.8q0-30.31,15.5-50.59t44.17-20.28q29,0,43.71,21.65T501.6,87.4q0,30.11-15.2,50.8T442,158.87Zm.91-116.19q-25.5,0-25.5,44.81t25.5,44.92q24.69,0,24.69-44.81T442.94,42.68Z"/><path class="cls-3" d="M584.19,225.38V284l39.09-58.58h28l-29.95,44.51,37.44,80.17H626.57l-24.88-54.14-17.49,25.55v28.59H555.51V225.38Z"/><path class="cls-3" d="M714.25,352q-25.19,0-39-18.91T661.5,287.3q0-27.31,14-45.58t39.79-18.27q26.1,0,39.38,19.5t13.28,44.62q0,27.13-13.69,45.76T714.25,352ZM700.41,212a10.12,10.12,0,0,1-7.85-3.2,10.65,10.65,0,0,1,.09-14.75,10.13,10.13,0,0,1,7.76-3.24,11.74,11.74,0,0,1,7.67,2.79,9.56,9.56,0,0,1,3.38,7.81,9.8,9.8,0,0,1-3.24,7.72A11.36,11.36,0,0,1,700.41,212Zm14.66,35.26q-23,0-23,40.37t23,40.46q22.24,0,22.24-40.37T715.07,247.3ZM730.92,212a10.12,10.12,0,0,1-7.85-3.2,10.59,10.59,0,0,1,.14-14.75,10.27,10.27,0,0,1,7.81-3.24,11.4,11.4,0,0,1,7.67,2.83,9.71,9.71,0,0,1,3.29,7.76,9.81,9.81,0,0,1-3.24,7.72A11.36,11.36,0,0,1,730.92,212Z"/><path class="cls-3" d="M812.41,300.64v49.42H783V225.38h54.8q15.16,0,24.34,3.52t15.21,12.92a37.93,37.93,0,0,1,6,20.9q0,22.45-21.65,32.22l23,55.12H852.48l-19.15-49.42Zm0-53.07v31.79h17.9q8.77,0,12.74-1.23a14.07,14.07,0,0,0,7.08-5.48,16.06,16.06,0,0,0,3.11-9.73,15.06,15.06,0,0,0-3.11-9.32q-3.11-4.11-6.76-5.07t-13.7-1Z"/></g></g></svg>