<svg xmlns="http://www.w3.org/2000/svg" viewBox="0 0 219.39 151.6"><defs><style>.b{fill:#1d1d1b}</style></defs><path fill="#7eba28" d="M204.76 112.95h-17.03V47.94h-14.45v65.01h-21.15V47.94h-14.97v65.01H43.95v-9.29h83.93V38.65h33.53v65.01h2.58V38.65h33.03v65.01h7.74v9.29z"/><path class="b" d="M119.1 58.26V49H81.71a5.16 5.16 0 0 0-5.16 5.16v36.09a5.16 5.16 0 0 0 5.16 5.16h37.39v-9.29H87.28v-9.29h22.28v-9.29H87.28v-9.28zm-83.42 9.28v-9.28h31.83V49h-37.4A5.16 5.16 0 0 0 25 54.13v17.54a5.16 5.16 0 0 0 5.16 5.16h26.62v9.29H25v9.29h37.35a5.16 5.16 0 0 0 5.16-5.16V72.7a5.16 5.16 0 0 0-5.16-5.16zm31.83-1.29z"/><path class="b" d="M219.39 9.9H199.6V0h-34.54v9.9h-13.89V0h-34.53v9.9h-13.89V0H68.22v9.9H54.33V0H19.79v9.9H0v55l2.47.82a10.56 10.56 0 0 1 7.24 10 10.56 10.56 0 0 1-7.24 10L0 86.66v55h19.79v9.9h34.54v-9.9h13.89v9.9h34.54v-9.9h13.89v9.9h34.54v-9.9h13.89v9.9h34.52v-9.9h19.79zm-7.22 124.57H7.22V91.66a17.77 17.77 0 0 0 9.72-15.86 17.77 17.77 0 0 0-9.72-15.86V17.13h204.95z"/><circle class="b" cx="26.02" cy="111.73" r="8.07"/></svg>