<svg xmlns="http://www.w3.org/2000/svg" viewBox="0 0 914.04 277.4"><defs><style>.cls-1{fill:#085caa;}.cls-2{fill:#fff;}</style></defs><title>Eszköz 1</title><g id="Réteg_2" data-name="Réteg 2"><g id="Réteg_2-2" data-name="Réteg 2"><circle class="cls-1" cx="164.79" cy="112.64" r="112.64"/><path class="cls-1" d="M56.9,157.54A24,24,0,1,0,44,188.89,24,24,0,0,0,56.9,157.54Z"/><path class="cls-1" d="M24,136.91A24,24,0,1,0,0,113a24,24,0,0,0,24,23.94Z"/><path class="cls-1" d="M82.32,195.39a24,24,0,1,0,0,33.92A24,24,0,0,0,82.32,195.39Z"/><path class="cls-1" d="M120.21,220.68A24,24,0,1,0,101.9,265a23.51,23.51,0,0,0,9.16,1.83,24,24,0,0,0,9.16-46.13Z"/><path class="cls-1" d="M164.91,229.44a24,24,0,1,0,24,24A24,24,0,0,0,164.91,229.44Z"/><circle class="cls-1" cx="483.1" cy="112.64" r="112.64"/><path class="cls-1" d="M375.21,157.54a24,24,0,1,0-12.91,31.35A24,24,0,0,0,375.21,157.54Z"/><path class="cls-1" d="M342.33,136.91a24,24,0,1,0-24-23.94,24,24,0,0,0,24,23.94Z"/><path class="cls-1" d="M400.63,195.39a24,24,0,1,0,0,33.92A24,24,0,0,0,400.63,195.39Z"/><path class="cls-1" d="M438.52,220.68A24,24,0,1,0,420.2,265a23.51,23.51,0,0,0,9.16,1.83,24,24,0,0,0,9.16-46.13Z"/><path class="cls-1" d="M483.21,229.44a24,24,0,1,0,24,24A24,24,0,0,0,483.21,229.44Z"/><circle class="cls-1" cx="801.4" cy="112.64" r="112.64"/><path class="cls-1" d="M693.51,157.54a24,24,0,1,0-12.91,31.35A24,24,0,0,0,693.51,157.54Z"/><path class="cls-1" d="M660.63,136.91a24,24,0,1,0-24-23.94,24,24,0,0,0,24,23.94Z"/><path class="cls-1" d="M718.93,195.39a24,24,0,1,0,0,33.92A24,24,0,0,0,718.93,195.39Z"/><path class="cls-1" d="M756.82,220.68A24,24,0,1,0,738.51,265a23.51,23.51,0,0,0,9.16,1.83,24,24,0,0,0,9.16-46.13Z"/><path class="cls-1" d="M801.52,229.44a24,24,0,1,0,24,24A24,24,0,0,0,801.52,229.44Z"/><path class="cls-2" d="M125.24,165.83V61.24h59.94a22.38,22.38,0,0,1,14,4.43q5.93,4.32,5.93,10.5V98.6q0,6.3-5.93,10.62a5.92,5.92,0,0,1-.94.58l.94.7q5.93,4.32,5.93,10.5v29.88q0,6.3-5.93,10.62a22.8,22.8,0,0,1-14,4.32Zm59.94-67.91V84.34A8.15,8.15,0,0,0,177,76.18H145.22v29.88H177A8.15,8.15,0,0,0,185.18,97.91Zm0,44.82V129.16A8.15,8.15,0,0,0,177,121H145.22v29.88H177A8.15,8.15,0,0,0,185.18,142.73Z"/><path class="cls-2" d="M463.94,165.83a21.9,21.9,0,0,1-13.78-4.32q-5.6-4.32-5.6-10.62V140.31l19.39-4.36v14.94h38.77V121H463.94a21.89,21.89,0,0,1-13.78-4.32q-5.6-4.32-5.6-10.62V76.18q0-6.19,5.6-10.5a21.51,21.51,0,0,1,13.78-4.43h38.77a21.28,21.28,0,0,1,13.63,4.43q5.75,4.32,5.75,10.5V86.76l-19.39,4.36V76.18H463.94v29.88h38.77a21.29,21.29,0,0,1,13.63,4.43q5.75,4.32,5.75,10.5v29.88q0,6.3-5.75,10.62a21.67,21.67,0,0,1-13.63,4.32Z"/><path class="cls-2" d="M783.25,165.83a21.9,21.9,0,0,1-13.78-4.32q-5.6-4.32-5.6-10.62V140.31l19.39-4.36v14.94H822V121H783.25a21.89,21.89,0,0,1-13.78-4.32q-5.6-4.32-5.6-10.62V76.18q0-6.19,5.6-10.5a21.51,21.51,0,0,1,13.78-4.43H822a21.28,21.28,0,0,1,13.63,4.43q5.75,4.32,5.75,10.5V86.76L822,91.12V76.18H783.25v29.88H822a21.29,21.29,0,0,1,13.63,4.43q5.75,4.32,5.75,10.5v29.88q0,6.3-5.75,10.62A21.67,21.67,0,0,1,822,165.83Z"/></g></g></svg>