<?xml version="1.0" encoding="utf-8"?>
<!-- Generator: Adobe Illustrator 22.0.1, SVG Export Plug-In . SVG Version: 6.00 Build 0)  -->
<svg version="1.1" id="Layer_1" xmlns="http://www.w3.org/2000/svg" xmlns:xlink="http://www.w3.org/1999/xlink" x="0px" y="0px"
	 viewBox="0 0 152.6 153.9" style="enable-background:new 0 0 152.6 153.9;" xml:space="preserve">
<style type="text/css">
	.st0{fill:#63BC47;}
</style>
<g>
	<g>
		<path class="st0" d="M76.3,9.4c37.3,0,67.5,30.2,67.5,67.5c0,37.3-30.2,67.5-67.5,67.5C39,144.5,8.8,114.3,8.8,77
			C8.8,39.7,39,9.4,76.3,9.4 M76.3,1.3C34.6,1.3,0.7,35.3,0.7,77s33.9,75.6,75.6,75.6S152,118.7,152,77S118,1.3,76.3,1.3L76.3,1.3z"
			/>
		<path class="st0" d="M142,59.1H67.1c-2.2,0-3.9-1.7-3.9-3.9c0-2.2,1.7-3.9,3.9-3.9H142c2.2,0,3.9,1.7,3.9,3.9
			C145.9,57.3,144.1,59.1,142,59.1z M54.4,46.7c-4.7,0-8.5,3.8-8.5,8.5s3.8,8.5,8.5,8.5s8.5-3.8,8.5-8.5S59.1,46.7,54.4,46.7
			 M54.4,38.6c9.2,0,16.6,7.5,16.6,16.6s-7.5,16.6-16.6,16.6s-16.6-7.5-16.6-16.6S45.2,38.6,54.4,38.6L54.4,38.6z"/>
		<g>
			<path class="st0" d="M83.5,104.1H13.1c-1.9,0-3.4-1.5-3.4-3.4s1.5-3.4,3.4-3.4h70.4c1.9,0,3.4,1.5,3.4,3.4S85.4,104.1,83.5,104.1
				z"/>
			<path class="st0" d="M96.1,91.8c4.7,0,8.5,3.8,8.5,8.5s-3.8,8.5-8.5,8.5s-8.5-3.8-8.5-8.5S91.4,91.8,96.1,91.8 M96.1,83.7
				c-9.2,0-16.6,7.5-16.6,16.6S86.9,117,96.1,117s16.6-7.5,16.6-16.6S105.3,83.7,96.1,83.7L96.1,83.7z"/>
		</g>
	</g>
</g>
</svg>
